<?xml version="1.0" encoding="utf-8"?><svg xml:space="preserve" viewBox="0 0 100 100" y="0" x="0" xmlns="http://www.w3.org/2000/svg" id="圖層_1" version="1.1" width="200px" height="200px" xmlns:xlink="http://www.w3.org/1999/xlink" style="width:100%;height:100%;background-size:initial;background-repeat-y:initial;background-repeat-x:initial;background-position-y:initial;background-position-x:initial;background-origin:initial;background-image:initial;background-color:rgb(255, 255, 255);background-clip:initial;background-attachment:initial;animation-play-state:paused" ><g class="ldl-scale" style="transform-origin:50% 50%;transform:rotate(0deg) scale(0.8, 0.8);animation-play-state:paused" ><circle fill="#fff" r="5.522" cy="87.5" cx="50" style="fill:rgb(255, 255, 255);animation-play-state:paused" ></circle>
<path d="M28.12 16.159h43.759v62.5H28.12z" stroke-miterlimit="10" stroke="#fff" fill="#fff" style="stroke:rgb(255, 255, 255);fill:rgb(255, 255, 255);animation-play-state:paused" ></path>
<path fill="#333" d="M70.67 7.159H29.33a5.21 5.21 0 0 0-5.21 5.21v78.58a5.21 5.21 0 0 0 5.21 5.21h41.34a5.21 5.21 0 0 0 5.21-5.21v-78.58a5.21 5.21 0 0 0-5.21-5.21zM50 93.022a5.522 5.522 0 1 1 0-11.043 5.522 5.522 0 0 1 0 11.043zm21.88-14.363H28.12v-62.5h43.76v62.5z" style="fill:rgb(51, 51, 51);animation-play-state:paused" ></path>
<path d="M40.208 12.25h19.584" stroke-miterlimit="10" stroke="#fff" stroke-linecap="round" stroke-width="2" fill="none" style="stroke:rgb(255, 255, 255);animation-play-state:paused" ></path>
<metadata xmlns:d="https://loading.io/stock/" style="animation-play-state:paused" ><d:name style="animation-play-state:paused" >phone</d:name>
<d:tags style="animation-play-state:paused" >phone,mobile,cellular phone,portable device,iphone,handheld</d:tags>
<d:license style="animation-play-state:paused" >by</d:license>
<d:slug style="animation-play-state:paused" >qpvxyg</d:slug></metadata></g><!-- generated by https://loading.io/ --></svg>