<?xml version="1.0" encoding="utf-8"?><svg xml:space="preserve" viewBox="0 0 100 100" y="0" x="0" xmlns="http://www.w3.org/2000/svg" id="圖層_1" version="1.1" width="200px" height="200px" xmlns:xlink="http://www.w3.org/1999/xlink" style="width:100%;height:100%;background-size:initial;background-repeat-y:initial;background-repeat-x:initial;background-position-y:initial;background-position-x:initial;background-origin:initial;background-image:initial;background-color:rgb(255, 255, 255);background-clip:initial;background-attachment:initial;animation-play-state:paused" ><g class="ldl-scale" style="transform-origin:50% 50%;transform:rotate(0deg) scale(0.8, 0.8);animation-play-state:paused" ><path stroke-miterlimit="10" stroke-width="4" fill="none" stroke="#333" d="M76.666 86.15H23.334a5.666 5.666 0 0 1-5.666-5.666V65.228c0-15.052 12.202-27.254 27.254-27.254h10.157c15.052 0 27.254 12.202 27.254 27.254v15.255a5.667 5.667 0 0 1-5.667 5.667z" style="stroke:rgb(51, 51, 51);animation-play-state:paused" ></path>
<circle stroke-miterlimit="10" stroke-width="4" fill="none" stroke="#333" r="15.084" cy="63.561" cx="50" style="stroke:rgb(51, 51, 51);animation-play-state:paused" ></circle>
<path stroke-miterlimit="10" stroke-width="4" fill="none" stroke="#333" d="M80.556 44.461h-4.701a8.292 8.292 0 0 1-5.904-2.446 8.29 8.29 0 0 1-2.445-5.904v-3.047a1.496 1.496 0 0 0-1.329-1.501 154.418 154.418 0 0 0-32.355 0 1.495 1.495 0 0 0-1.328 1.5v3.047c0 2.23-.868 4.327-2.445 5.904a8.29 8.29 0 0 1-5.904 2.445h-4.701c-4.605 0-8.351-3.746-8.35-8.35V28.49c0-5.085 3.453-9.516 8.398-10.775 20.244-5.156 40.772-5.156 61.014 0 2.003.51 3.76 1.54 5.144 2.923a11.09 11.09 0 0 1 3.255 7.852v7.619c.001 4.606-3.745 8.352-8.349 8.352z" style="stroke:rgb(51, 51, 51);animation-play-state:paused" ></path>
<metadata xmlns:d="https://loading.io/stock/" style="animation-play-state:paused" ><d:name style="animation-play-state:paused" >phone</d:name>
<d:tags style="animation-play-state:paused" >antique,dialpad,telephone,turntable,phone,communication</d:tags>
<d:license style="animation-play-state:paused" >by</d:license>
<d:slug style="animation-play-state:paused" >63itp5</d:slug></metadata></g><!-- generated by https://loading.io/ --></svg>