<?xml version="1.0" encoding="utf-8"?>
<!-- Generator: Adobe Illustrator 27.1.0, SVG Export Plug-In . SVG Version: 6.00 Build 0)  -->
<svg version="1.1" id="Layer_1" xmlns="http://www.w3.org/2000/svg" xmlns:xlink="http://www.w3.org/1999/xlink" x="0px" y="0px"
	 viewBox="0 0 341.21 421.19" style="enable-background:new 0 0 341.21 421.19;" xml:space="preserve">
<style type="text/css">
	.st0{clip-path:url(#SVGID_00000173143517878881074900000018172682546075374982_);}
	.st1{fill:#231F20;}
	.st2{fill:#7D664A;}
	.st3{fill:#FFFFFF;}
	.st4{fill:#EE4036;}
	.st5{fill:#FFDD15;}
	.st6{clip-path:url(#SVGID_00000020376178461386778160000005935454827994363287_);}
</style>
<g>
	<g>
		<defs>
			<path id="SVGID_00000062192310038283465060000006774467715919538836_" d="M170.6,417.96C3,351.33,3,241.28,3,241.28V3h335.21
				v238.28C338.21,241.28,338.21,351.33,170.6,417.96z"/>
		</defs>
		<use xlink:href="#SVGID_00000062192310038283465060000006774467715919538836_"  style="overflow:visible;fill:#FFFFFF;"/>
		<clipPath id="SVGID_00000012450811643495006310000001785145174841443985_">
			<use xlink:href="#SVGID_00000062192310038283465060000006774467715919538836_"  style="overflow:visible;"/>
		</clipPath>
		
			<g id="ipRkE4.tif_00000103258460912951045980000001190127236827571366_" style="clip-path:url(#SVGID_00000012450811643495006310000001785145174841443985_);">
			<g>
				<path class="st1" d="M272.53,395.42c-1.68,0-3.36,0.01-5.04,0c-5.56-0.04-11.12-0.06-16.69-0.13
					c-5.89-0.08-11.78-0.31-17.67-0.29c-26.53,0.07-64.69,46.29-91.22,46.4c-0.48,0,8.88,13.22,8.4,13.2c-0.81-0.02-9.11-5.79-9-6.6
					c0.86-6.53,10.75-66.95,9.86-73.5c-0.71-5.21-1.81-10.29-3.68-15.18c-2.59-6.74-6.27-12.77-11.94-17.41
					c-4.29-3.51-9.22-5.6-14.63-6.63c-0.45-0.09-0.96-0.05-1.41,0.06c-4.78,1.23-9.53,2.57-14.33,3.72
					c-4.55,1.09-9.21,1.69-13.83,0.69c-8.6-1.86-13.04-7.45-13.11-16.31c-0.02-1.9,0.26-3.8,0.22-5.7
					c-0.04-1.89-0.58-3.66-2.04-5.01c-1.34-1.24-2.89-1.67-4.59-0.98c-1.01,0.41-1.63,0.16-2.13-0.71
					c-2.12-3.69-2.39-7.46-0.4-11.27c0.4-0.77,1.15-1.36,1.75-2.02c0.3-0.32,0.64-0.61,1.01-0.96c-0.91-0.74-1.67-1.38-2.45-1.99
					c-3.31-2.6-3.3-6.61-2.05-9.98c0.13-0.35,0.64-0.63,1.04-0.79c2.11-0.86,3.75-2.1,4.41-4.45c0.25-0.88,0-1.11-0.65-1.54
					c-1.42-0.93-2.83-1.91-4.12-3.02c-3.2-2.75-3.44-6.2-2.2-9.99c1.59-4.89,5.05-8.51,8.11-12.43c2.45-3.13,4.77-6.38,6.87-9.75
					c2.07-3.33,1.72-6.9,0.13-10.37c-0.91-1.98-2.13-3.84-2.79-5.9c-1.29-3.99-1.32-8.11-0.58-12.25c0.45-2.52,0.95-5.04,1.17-7.58
					c0.32-3.7,1.61-7.08,2.9-10.51c1.66-4.42,3.59-8.66,6.35-12.51c0.28-0.39,0.31-1.33,0.03-1.7c-2.89-3.92-0.79-9.37,3.63-10.48
					c1.47-0.37,2.18-0.98,2.71-2.39c1.28-3.45,3.92-5.88,8.25-5.19c0.84,0.13,1.12-0.22,1.24-0.94c0.65-3.97,3.29-6.15,6.84-7.42
					c0.82-0.29,1.79-0.11,2.65-0.32c0.66-0.16,1.45-0.45,1.83-0.95c2.1-2.71,4.53-4.99,8.01-5.51c1.71-0.26,3.51,0.13,5.06,0.21
					c1.3-1.27,2.44-2.96,4.04-3.83c3.09-1.68,6.55-1.85,9.98-0.99c0.92,0.23,1.55,0.15,2.3-0.53c2.1-1.9,4.55-3.21,7.47-2.82
					c1.51,0.2,3.01,0.8,4.41,1.43c0.92,0.41,1.62,0.47,2.53,0.02c3.8-1.91,7.81-3.35,12.05-2.03c2.21,0.69,4.06,0.7,6.3,0.12
					c3.28-0.85,6.7-0.63,9.81,1.15c0.41,0.23,0.93,0.47,1.12,0.85c0.74,1.51,1.75,1.27,3.17,1c4.8-0.92,9.18-0.22,12.45,3.94
					c0.29,0.36,1.05,0.57,1.55,0.51c4.58-0.57,8.16,1.03,10.87,4.74c0.34,0.47,0.98,0.86,1.55,0.99c3.22,0.73,5.71,2.22,6.64,5.66
					c0.12,0.43,0.81,0.96,1.28,1.01c3.21,0.38,5.02,2.24,5.83,5.23c0.26,0.95,0.68,1.43,1.74,1.7c3.13,0.81,5.4,2.64,6.25,5.97
					c0.12,0.49,0.83,1.03,1.37,1.18c3.39,0.98,5.21,3.18,5.72,6.67c0.15,1.03,0.73,2.11,1.4,2.93c1.85,2.23,2.53,4.62,1.56,7.39
					c-0.27,0.76-0.3,1.27,0.52,1.77c2.41,1.47,4.4,3.23,3.65,6.51c-0.07,0.31,0.07,0.8,0.29,1.04c2.01,2.12,2.48,4.7,2.45,7.5
					c-0.01,0.96,0.24,1.97,0.59,2.88c1.08,2.79,1.06,5.53,0.08,8.34c-0.21,0.59-0.19,1.43,0.09,1.98c1.14,2.26,1,4.47,0.09,6.74
					c-0.25,0.63-0.42,1.38-0.36,2.04c0.34,3.37-0.18,6.52-2.03,9.42c-0.28,0.44-0.34,1.08-0.33,1.63c0.02,3.75-1.36,6.82-4.25,9.23
					c-0.4,0.33-0.79,0.93-0.8,1.41c-0.08,2.99-1.73,5.02-3.9,6.81c-0.46,0.38-0.92,1.01-1,1.58c-0.45,3.09-2.32,4.85-5.08,5.93
					c-0.54,0.21-1.11,0.65-1.42,1.14c-1.22,1.9-2.7,3.39-4.99,3.93c-0.36,0.08-0.75,0.41-0.94,0.73c-0.94,1.61-2.38,2.33-4.15,2.69
					c-0.67,0.14-1.37,0.61-1.85,1.13c-3,3.18-5.8,6.55-8.95,9.56c-1.59,1.52-1.9,3.34-2.31,5.19c-1.6,7.28-2.04,14.67-1.67,22.11
					c0.3,6,1.28,11.88,2.67,17.72c2.04,8.6,5.25,16.74,9.48,24.47c1.86,3.4,3.72,6.87,6.06,9.94c3.38,4.43,6.75,8.91,11.11,12.49
					c2.26,1.86,4.45,3.83,6.78,5.61c2.62,2,5.18,4.17,8.08,5.66c4.37,2.24,9.01,3.96,13.54,5.9c0.44,0.19,0.87,0.39,1.31,0.58
					C272.58,395.12,272.55,395.27,272.53,395.42z"/>
			</g>
		</g>
		<g style="clip-path:url(#SVGID_00000012450811643495006310000001785145174841443985_);">
			<rect x="3.09" y="84.38" class="st2" width="335.04" height="6"/>
		</g>
	</g>
	<g>
		<path class="st1" d="M31.06,108.18c0,0.11-0.04,0.17-0.12,0.17h-2.42v14.16c0,0.08-0.04,0.12-0.12,0.12h-3.12
			c-0.08,0-0.12-0.04-0.12-0.12v-14.16h-2.45c-0.08,0-0.12-0.06-0.12-0.17v-2.38c0-0.11,0.04-0.17,0.12-0.17h8.23
			c0.08,0,0.12,0.06,0.12,0.17V108.18z"/>
		<path class="st1" d="M44.87,122.51c0,0.08-0.04,0.12-0.12,0.12h-3.12c-0.08,0-0.12-0.04-0.12-0.12v-7.22h-1.44v7.22
			c0,0.08-0.04,0.12-0.12,0.12h-3.12c-0.08,0-0.12-0.04-0.12-0.12v-16.75c0-0.08,0.04-0.12,0.12-0.12h3.12
			c0.08,0,0.12,0.04,0.12,0.12v6.84h1.44v-6.84c0-0.08,0.04-0.12,0.12-0.12h3.12c0.08,0,0.12,0.04,0.12,0.12V122.51z"/>
		<path class="st1" d="M54.95,112.6h2.88c0.08,0,0.12,0.04,0.12,0.12v2.45c0,0.08-0.04,0.12-0.12,0.12h-2.88v4.63h3.36
			c0.08,0,0.12,0.04,0.12,0.12v2.47c0,0.08-0.04,0.12-0.12,0.12h-6.6c-0.08,0-0.12-0.04-0.12-0.12v-16.75
			c0-0.08,0.04-0.12,0.12-0.12h6.6c0.08,0,0.12,0.04,0.12,0.12v2.47c0,0.08-0.04,0.12-0.12,0.12h-3.36V112.6z"/>
		<path class="st1" d="M81.29,122.63h-3.12c-0.05,0-0.09-0.04-0.12-0.12l-0.38-3.17h-1.99l-0.41,3.17c0,0.08-0.04,0.12-0.12,0.12
			h-3.12c-0.03,0-0.06-0.01-0.1-0.04s-0.04-0.05-0.02-0.08l2.4-16.75c0.03-0.08,0.07-0.12,0.12-0.12h4.51
			c0.05,0,0.09,0.04,0.12,0.12l2.35,16.75c0.02,0.03,0.01,0.06-0.02,0.08S81.32,122.63,81.29,122.63z M77.23,115.72
			c-0.11-0.88-0.22-2.08-0.31-3.6c-0.1-1.52-0.14-2.61-0.14-3.26h-0.19c0,0.64-0.05,1.72-0.14,3.24c-0.1,1.52-0.2,2.72-0.31,3.6
			l-0.12,0.94h1.34L77.23,115.72z"/>
		<path class="st1" d="M93.97,108.18c0,0.11-0.04,0.17-0.12,0.17h-3.36v4.25h2.88c0.08,0,0.12,0.06,0.12,0.17v2.38
			c0,0.1-0.04,0.14-0.12,0.14h-2.88v7.22c0,0.08-0.04,0.12-0.12,0.12h-3.12c-0.08,0-0.12-0.04-0.12-0.12v-16.75
			c0-0.08,0.04-0.12,0.12-0.12h6.6c0.08,0,0.12,0.06,0.12,0.17V108.18z"/>
		<path class="st1" d="M104.84,122.63c-0.06,0-0.11-0.02-0.14-0.07c-0.11-0.18-0.17-0.48-0.17-0.91v-5.52c0-0.3-0.04-0.51-0.11-0.61
			s-0.24-0.16-0.49-0.16h-0.72v7.15c0,0.08-0.04,0.12-0.12,0.12h-3.12c-0.08,0-0.12-0.04-0.12-0.12v-16.75
			c0-0.08,0.04-0.12,0.12-0.12h3.79c1.36,0,2.37,0.27,3.02,0.8s0.98,1.37,0.98,2.51v2.57c0,0.62-0.13,1.15-0.38,1.58
			c-0.26,0.43-0.63,0.7-1.13,0.82v0.14c0.51,0.08,0.91,0.29,1.2,0.64c0.29,0.34,0.43,0.79,0.43,1.33v4.32c0,0.51,0.02,0.91,0.06,1.2
			s0.12,0.6,0.25,0.94c0.03,0.1,0,0.14-0.1,0.14H104.84z M104.37,108.52c-0.1-0.11-0.29-0.17-0.56-0.17h-0.6v4.44h0.6
			c0.27,0,0.46-0.06,0.56-0.17c0.1-0.11,0.16-0.31,0.16-0.6v-2.9C104.53,108.83,104.48,108.63,104.37,108.52z"/>
		<path class="st1" d="M114.4,105.76c0-0.08,0.04-0.12,0.12-0.12h3.12c0.08,0,0.12,0.04,0.12,0.12v16.75c0,0.08-0.04,0.12-0.12,0.12
			h-3.12c-0.08,0-0.12-0.04-0.12-0.12V105.76z"/>
		<path class="st1" d="M124.19,119.49v-10.68c0-1.12,0.36-1.96,1.07-2.53s1.69-0.85,2.94-0.85c2.77,0,4.15,1.13,4.15,3.38v3.46
			c0,0.08-0.04,0.12-0.12,0.12h-3.12c-0.08,0-0.12-0.04-0.12-0.12v-3.36c0-0.29-0.06-0.49-0.17-0.61c-0.11-0.12-0.3-0.18-0.55-0.18
			c-0.27,0-0.46,0.06-0.56,0.18c-0.1,0.12-0.16,0.32-0.16,0.61v10.46c0,0.29,0.05,0.49,0.16,0.61c0.1,0.12,0.29,0.18,0.56,0.18
			c0.26,0,0.44-0.06,0.55-0.18c0.11-0.12,0.17-0.32,0.17-0.61v-3.7c0-0.08,0.04-0.12,0.12-0.12h3.12c0.08,0,0.12,0.04,0.12,0.12
			v3.82c0,2.26-1.38,3.38-4.15,3.38c-1.25,0-2.23-0.28-2.94-0.85C124.55,121.45,124.19,120.61,124.19,119.49z"/>
		<path class="st1" d="M146.83,122.63h-3.12c-0.05,0-0.09-0.04-0.12-0.12l-0.38-3.17h-1.99l-0.41,3.17c0,0.08-0.04,0.12-0.12,0.12
			h-3.12c-0.03,0-0.06-0.01-0.1-0.04s-0.04-0.05-0.02-0.08l2.4-16.75c0.03-0.08,0.07-0.12,0.12-0.12h4.51
			c0.05,0,0.09,0.04,0.12,0.12l2.35,16.75c0.02,0.03,0.01,0.06-0.02,0.08S146.86,122.63,146.83,122.63z M142.77,115.72
			c-0.11-0.88-0.22-2.08-0.31-3.6c-0.1-1.52-0.14-2.61-0.14-3.26h-0.19c0,0.64-0.05,1.72-0.14,3.24c-0.1,1.52-0.2,2.72-0.31,3.6
			l-0.12,0.94h1.34L142.77,115.72z"/>
		<path class="st1" d="M152.67,105.76c0-0.08,0.04-0.12,0.12-0.12h2.9c0.05,0,0.09,0.04,0.12,0.12l2.28,11.02h0.17
			c-0.22-1.65-0.4-3.26-0.53-4.84s-0.19-2.87-0.19-3.88v-2.3c0-0.08,0.04-0.12,0.12-0.12h3.05c0.08,0,0.12,0.04,0.12,0.12v16.75
			c0,0.08-0.04,0.12-0.12,0.12h-2.88c-0.06,0-0.11-0.04-0.14-0.12l-2.28-10.75h-0.17c0.22,1.49,0.4,2.96,0.54,4.4
			c0.14,1.45,0.2,2.69,0.2,3.73v2.62c0,0.08-0.04,0.12-0.12,0.12h-3.07c-0.08,0-0.12-0.04-0.12-0.12V105.76z"/>
		<path class="st1" d="M183.35,108.18c0,0.11-0.04,0.17-0.12,0.17h-2.42v14.16c0,0.08-0.04,0.12-0.12,0.12h-3.12
			c-0.08,0-0.12-0.04-0.12-0.12v-14.16H175c-0.08,0-0.12-0.06-0.12-0.17v-2.38c0-0.11,0.04-0.17,0.12-0.17h8.23
			c0.08,0,0.12,0.06,0.12,0.17V108.18z"/>
		<path class="st1" d="M192.35,112.6h2.88c0.08,0,0.12,0.04,0.12,0.12v2.45c0,0.08-0.04,0.12-0.12,0.12h-2.88v4.63h3.36
			c0.08,0,0.12,0.04,0.12,0.12v2.47c0,0.08-0.04,0.12-0.12,0.12h-6.6c-0.08,0-0.12-0.04-0.12-0.12v-16.75
			c0-0.08,0.04-0.12,0.12-0.12h6.6c0.08,0,0.12,0.04,0.12,0.12v2.47c0,0.08-0.04,0.12-0.12,0.12h-3.36V112.6z"/>
		<path class="st1" d="M201.91,105.76c0-0.08,0.04-0.12,0.12-0.12h2.9c0.05,0,0.09,0.04,0.12,0.12l2.28,11.02h0.17
			c-0.22-1.65-0.4-3.26-0.53-4.84s-0.19-2.87-0.19-3.88v-2.3c0-0.08,0.04-0.12,0.12-0.12h3.05c0.08,0,0.12,0.04,0.12,0.12v16.75
			c0,0.08-0.04,0.12-0.12,0.12h-2.88c-0.06,0-0.11-0.04-0.14-0.12l-2.28-10.75h-0.17c0.22,1.49,0.4,2.96,0.54,4.4
			c0.14,1.45,0.2,2.69,0.2,3.73v2.62c0,0.08-0.04,0.12-0.12,0.12h-3.07c-0.08,0-0.12-0.04-0.12-0.12V105.76z"/>
		<path class="st1" d="M216.79,105.76c0-0.08,0.04-0.12,0.12-0.12h2.9c0.05,0,0.09,0.04,0.12,0.12l2.28,11.02h0.17
			c-0.22-1.65-0.4-3.26-0.53-4.84s-0.19-2.87-0.19-3.88v-2.3c0-0.08,0.04-0.12,0.12-0.12h3.05c0.08,0,0.12,0.04,0.12,0.12v16.75
			c0,0.08-0.04,0.12-0.12,0.12h-2.88c-0.06,0-0.11-0.04-0.14-0.12l-2.28-10.75h-0.17c0.22,1.49,0.4,2.96,0.54,4.4
			c0.14,1.45,0.2,2.69,0.2,3.73v2.62c0,0.08-0.04,0.12-0.12,0.12h-3.07c-0.08,0-0.12-0.04-0.12-0.12V105.76z"/>
		<path class="st1" d="M231.68,105.76c0-0.08,0.04-0.12,0.12-0.12h3.12c0.08,0,0.12,0.04,0.12,0.12v16.75
			c0,0.08-0.04,0.12-0.12,0.12h-3.12c-0.08,0-0.12-0.04-0.12-0.12V105.76z"/>
		<path class="st1" d="M241.4,116.56c0-0.08,0.04-0.12,0.12-0.12h3.12c0.08,0,0.12,0.04,0.12,0.12v2.81c0,0.29,0.06,0.49,0.17,0.61
			c0.11,0.12,0.3,0.18,0.55,0.18c0.27,0,0.46-0.06,0.56-0.18c0.1-0.12,0.16-0.32,0.16-0.61v-2.06c0-0.46-0.16-0.85-0.47-1.16
			c-0.31-0.31-0.83-0.72-1.55-1.21c-0.66-0.45-1.16-0.81-1.5-1.08s-0.64-0.63-0.9-1.08c-0.26-0.45-0.38-0.98-0.38-1.61v-2.38
			c0-1.12,0.36-1.96,1.07-2.53c0.71-0.57,1.7-0.85,2.96-0.85c2.75,0,4.13,1.13,4.13,3.38v2.69c0,0.08-0.04,0.12-0.12,0.12h-3.12
			c-0.08,0-0.12-0.04-0.12-0.12v-2.57c0-0.29-0.05-0.49-0.16-0.61c-0.1-0.12-0.29-0.18-0.56-0.18c-0.26,0-0.44,0.06-0.55,0.18
			c-0.11,0.12-0.17,0.32-0.17,0.61v1.78c0,0.42,0.15,0.77,0.44,1.06s0.78,0.66,1.45,1.1c0.91,0.59,1.62,1.17,2.14,1.74
			c0.51,0.57,0.77,1.29,0.77,2.17v2.74c0,1.12-0.36,1.96-1.07,2.53c-0.71,0.57-1.69,0.85-2.94,0.85c-2.77,0-4.15-1.13-4.15-3.38
			V116.56z"/>
		<path class="st1" d="M264.04,119.49v-10.68c0-1.12,0.36-1.96,1.07-2.53s1.69-0.85,2.94-0.85c2.77,0,4.15,1.13,4.15,3.38v3.46
			c0,0.08-0.04,0.12-0.12,0.12h-3.12c-0.08,0-0.12-0.04-0.12-0.12v-3.36c0-0.29-0.06-0.49-0.17-0.61c-0.11-0.12-0.3-0.18-0.55-0.18
			c-0.27,0-0.46,0.06-0.56,0.18c-0.1,0.12-0.16,0.32-0.16,0.61v10.46c0,0.29,0.05,0.49,0.16,0.61c0.1,0.12,0.29,0.18,0.56,0.18
			c0.26,0,0.44-0.06,0.55-0.18c0.11-0.12,0.17-0.32,0.17-0.61v-3.7c0-0.08,0.04-0.12,0.12-0.12h3.12c0.08,0,0.12,0.04,0.12,0.12
			v3.82c0,2.26-1.38,3.38-4.15,3.38c-1.25,0-2.23-0.28-2.94-0.85C264.4,121.45,264.04,120.61,264.04,119.49z"/>
		<path class="st1" d="M285.33,122.46c0,0.11-0.04,0.17-0.12,0.17h-6.6c-0.08,0-0.12-0.04-0.12-0.12v-16.75
			c0-0.08,0.04-0.12,0.12-0.12h3.12c0.08,0,0.12,0.04,0.12,0.12v14.16h3.36c0.08,0,0.12,0.06,0.12,0.17V122.46z"/>
		<path class="st1" d="M290.74,119.41v-13.66c0-0.08,0.04-0.12,0.12-0.12h3.12c0.08,0,0.12,0.04,0.12,0.12v13.56
			c0,0.29,0.05,0.49,0.16,0.61c0.1,0.12,0.29,0.18,0.56,0.18c0.26,0,0.44-0.06,0.55-0.18c0.11-0.12,0.17-0.32,0.17-0.61v-13.56
			c0-0.08,0.04-0.12,0.12-0.12h3.12c0.08,0,0.12,0.04,0.12,0.12v13.66c0,1.14-0.35,1.99-1.06,2.56c-0.7,0.57-1.74,0.85-3.1,0.85
			c-1.25,0-2.23-0.29-2.94-0.86C291.09,121.38,290.74,120.54,290.74,119.41z"/>
		<path class="st1" d="M313.59,116.03v3.22c0,2.26-1.38,3.38-4.13,3.38h-3.91c-0.08,0-0.12-0.04-0.12-0.12v-16.75
			c0-0.08,0.04-0.12,0.12-0.12h3.79c1.36,0,2.37,0.27,3.02,0.8s0.98,1.37,0.98,2.51v2.57c0,0.62-0.13,1.15-0.38,1.58
			c-0.26,0.43-0.63,0.7-1.13,0.82v0.14c0.51,0.08,0.93,0.29,1.26,0.64C313.43,115.04,313.59,115.49,313.59,116.03z M308.79,112.79
			h0.6c0.27,0,0.46-0.06,0.56-0.17c0.1-0.11,0.16-0.31,0.16-0.6v-2.9c0-0.29-0.05-0.49-0.16-0.6c-0.1-0.11-0.29-0.17-0.56-0.17h-0.6
			V112.79z M310.08,115.55c-0.1-0.11-0.29-0.17-0.56-0.17h-0.72v4.54h0.72c0.27,0,0.46-0.06,0.56-0.17c0.1-0.11,0.16-0.31,0.16-0.6
			v-3C310.23,115.86,310.18,115.66,310.08,115.55z"/>
	</g>
	<g>
		<path class="st1" d="M45.95,69.28h-7.97c-0.12,0-0.22-0.1-0.31-0.31l-0.98-8.09H31.6l-1.04,8.09c0,0.2-0.1,0.31-0.31,0.31h-7.97
			c-0.08,0-0.16-0.03-0.25-0.09s-0.1-0.13-0.06-0.21l6.13-42.8c0.08-0.2,0.18-0.31,0.31-0.31h11.53c0.12,0,0.22,0.1,0.31,0.31
			l6.01,42.8c0.04,0.08,0.02,0.15-0.06,0.21S46.03,69.28,45.95,69.28z M35.58,51.62c-0.29-2.25-0.55-5.31-0.8-9.2
			s-0.37-6.66-0.37-8.34h-0.49c0,1.64-0.12,4.4-0.37,8.28c-0.25,3.88-0.51,6.95-0.8,9.2l-0.31,2.39h3.43L35.58,51.62z"/>
		<path class="st1" d="M74.03,32.36c0,0.29-0.1,0.43-0.31,0.43h-8.59v10.85h7.36c0.2,0,0.31,0.14,0.31,0.43v6.07
			c0,0.25-0.1,0.37-0.31,0.37h-7.36v18.46c0,0.2-0.1,0.31-0.31,0.31h-7.97c-0.2,0-0.31-0.1-0.31-0.31v-42.8
			c0-0.2,0.1-0.31,0.31-0.31h16.86c0.2,0,0.31,0.14,0.31,0.43V32.36z"/>
		<path class="st1" d="M97.52,69.28c-0.16,0-0.29-0.06-0.37-0.18c-0.29-0.45-0.43-1.23-0.43-2.33v-14.1c0-0.78-0.09-1.3-0.28-1.56
			c-0.18-0.27-0.6-0.4-1.26-0.4h-1.84v18.27c0,0.2-0.1,0.31-0.31,0.31h-7.97c-0.2,0-0.31-0.1-0.31-0.31v-42.8
			c0-0.2,0.1-0.31,0.31-0.31h9.69c3.47,0,6.05,0.68,7.73,2.05c1.68,1.37,2.51,3.51,2.51,6.41v6.56c0,1.59-0.33,2.94-0.98,4.05
			c-0.65,1.1-1.62,1.8-2.88,2.08v0.37c1.31,0.2,2.33,0.75,3.07,1.62c0.74,0.88,1.1,2.01,1.1,3.4v11.04c0,1.31,0.05,2.33,0.15,3.07
			c0.1,0.74,0.32,1.53,0.64,2.39c0.08,0.25,0,0.37-0.25,0.37H97.52z M96.33,33.22c-0.27-0.29-0.75-0.43-1.44-0.43h-1.53v11.35h1.53
			c0.7,0,1.18-0.14,1.44-0.43c0.27-0.29,0.4-0.8,0.4-1.53v-7.42C96.72,34.02,96.59,33.51,96.33,33.22z"/>
		<path class="st1" d="M116.72,61.24V33.89c0-2.86,0.91-5.02,2.73-6.47c1.82-1.45,4.32-2.18,7.51-2.18c7.07,0,10.61,2.88,10.61,8.65
			v27.35c0,5.77-3.54,8.65-10.61,8.65c-3.19,0-5.69-0.73-7.51-2.18C117.63,66.26,116.72,64.11,116.72,61.24z M128.98,60.94V34.2
			c0-0.74-0.14-1.26-0.43-1.56s-0.76-0.46-1.41-0.46c-0.7,0-1.18,0.15-1.44,0.46s-0.4,0.83-0.4,1.56v26.74
			c0,0.74,0.13,1.26,0.4,1.56s0.75,0.46,1.44,0.46c0.65,0,1.12-0.15,1.41-0.46S128.98,61.67,128.98,60.94z"/>
		<path class="st1" d="M168.04,32.36c0,0.29-0.1,0.43-0.31,0.43h-6.19v36.18c0,0.2-0.1,0.31-0.31,0.31h-7.97
			c-0.2,0-0.31-0.1-0.31-0.31V32.79h-6.25c-0.2,0-0.31-0.14-0.31-0.43v-6.07c0-0.29,0.1-0.43,0.31-0.43h21.03
			c0.21,0,0.31,0.14,0.31,0.43V32.36z"/>
		<path class="st1" d="M186.75,43.64h7.36c0.2,0,0.31,0.1,0.31,0.31v6.25c0,0.2-0.1,0.31-0.31,0.31h-7.36v11.84h8.59
			c0.2,0,0.31,0.1,0.31,0.31v6.32c0,0.2-0.1,0.31-0.31,0.31h-16.86c-0.21,0-0.31-0.1-0.31-0.31v-42.8c0-0.2,0.1-0.31,0.31-0.31
			h16.86c0.2,0,0.31,0.1,0.31,0.31v6.32c0,0.2-0.1,0.31-0.31,0.31h-8.59V43.64z"/>
		<path class="st1" d="M206.86,26.17c0-0.2,0.1-0.31,0.31-0.31h7.42c0.12,0,0.22,0.1,0.31,0.31l5.83,28.15h0.43
			c-0.57-4.21-1.02-8.33-1.35-12.36s-0.49-7.33-0.49-9.9v-5.89c0-0.2,0.1-0.31,0.31-0.31h7.79c0.2,0,0.31,0.1,0.31,0.31v42.8
			c0,0.2-0.1,0.31-0.31,0.31h-7.36c-0.16,0-0.29-0.1-0.37-0.31l-5.83-27.47h-0.43c0.57,3.8,1.03,7.55,1.38,11.25
			c0.35,3.7,0.52,6.88,0.52,9.54v6.68c0,0.2-0.1,0.31-0.31,0.31h-7.85c-0.21,0-0.31-0.1-0.31-0.31V26.17z"/>
		<path class="st1" d="M240.59,26.17c0-0.2,0.1-0.31,0.31-0.31h7.42c0.12,0,0.22,0.1,0.31,0.31l5.83,28.15h0.43
			c-0.57-4.21-1.02-8.33-1.35-12.36s-0.49-7.33-0.49-9.9v-5.89c0-0.2,0.1-0.31,0.31-0.31h7.79c0.2,0,0.31,0.1,0.31,0.31v42.8
			c0,0.2-0.1,0.31-0.31,0.31h-7.36c-0.16,0-0.29-0.1-0.37-0.31l-5.83-27.47h-0.43c0.57,3.8,1.03,7.55,1.38,11.25
			c0.35,3.7,0.52,6.88,0.52,9.54v6.68c0,0.2-0.1,0.31-0.31,0.31h-7.85c-0.21,0-0.31-0.1-0.31-0.31V26.17z"/>
		<path class="st1" d="M274.32,26.17c0-0.2,0.1-0.31,0.31-0.31h7.97c0.21,0,0.31,0.1,0.31,0.31v42.8c0,0.2-0.1,0.31-0.31,0.31h-7.97
			c-0.2,0-0.31-0.1-0.31-0.31V26.17z"/>
		<path class="st1" d="M294.86,53.76c0-0.2,0.1-0.31,0.31-0.31h7.97c0.21,0,0.31,0.1,0.31,0.31v7.17c0,0.74,0.14,1.26,0.43,1.56
			s0.76,0.46,1.41,0.46c0.7,0,1.18-0.15,1.44-0.46s0.4-0.83,0.4-1.56v-5.27c0-1.19-0.4-2.18-1.2-2.97c-0.8-0.8-2.12-1.83-3.96-3.1
			c-1.68-1.14-2.95-2.06-3.83-2.76c-0.88-0.7-1.65-1.62-2.3-2.76c-0.65-1.14-0.98-2.51-0.98-4.11v-6.07c0-2.86,0.91-5.02,2.73-6.47
			c1.82-1.45,4.34-2.18,7.57-2.18c7.03,0,10.55,2.88,10.55,8.65v6.87c0,0.2-0.1,0.31-0.31,0.31h-7.97c-0.2,0-0.31-0.1-0.31-0.31
			V34.2c0-0.74-0.13-1.26-0.4-1.56s-0.75-0.46-1.44-0.46c-0.65,0-1.12,0.15-1.41,0.46s-0.43,0.83-0.43,1.56v4.54
			c0,1.06,0.38,1.96,1.13,2.7c0.76,0.74,1.99,1.68,3.71,2.82c2.33,1.51,4.15,2.99,5.46,4.45c1.31,1.45,1.96,3.3,1.96,5.55v6.99
			c0,2.86-0.91,5.02-2.73,6.47c-1.82,1.45-4.32,2.18-7.51,2.18c-7.07,0-10.61-2.88-10.61-8.65V53.76z"/>
	</g>
	<g>
		<g id="C2EIzz.tif_00000032644163039531041010000012957794840300028848_">
			<g>
				<path class="st4" d="M69.83,190.3c8.04,0,16.09,0.01,24.13-0.01c1.09,0,1.84,0.4,2.33,1.41c0.13,0.27,0.61,0.52,0.93,0.53
					c1.46,0.06,2.93,0.02,4.39,0.02c7.9,0,15.8-0.06,23.7,0.02c4.41,0.04,8.53-1.01,12.48-2.84c6.92-3.22,12.91-7.76,18.34-13.07
					c2.99-2.93,5.76-6.09,8.86-8.88c4.04-3.64,8.8-6.15,13.9-8.05c3.7-1.38,7.49-2.38,11.38-2.94c5.61-0.81,11.26-1.16,16.91-0.47
					c3.33,0.41,6.67,0.8,9.94,1.5c3.9,0.82,7.64,2.24,11.21,4.04c3.69,1.86,7.04,4.19,10.04,7.03c4.73,4.49,8.14,9.82,10.17,16.01
					c1.7,5.18,2.26,10.49,1.8,15.94c-0.72,8.48-3.9,15.91-9.44,22.32c-4.21,4.87-9.37,8.53-15.35,10.91
					c-3.1,1.23-6.29,2.32-9.53,3.07c-6.67,1.55-13.48,1.85-20.29,1.36c-3.56-0.26-7.12-0.84-10.6-1.64
					c-6.39-1.47-12.31-4.09-17.66-7.95c-3.35-2.42-6.11-5.44-8.92-8.42c-6.38-6.74-13.53-12.47-22.16-16.15
					c-3.41-1.45-6.96-2.26-10.7-2.25c-9.34,0.03-18.67,0.02-28.01-0.01c-0.8,0-1.2,0.23-1.55,1c-0.23,0.51-0.9,0.89-1.46,1.16
					c-0.38,0.18-0.9,0.1-1.36,0.1c-15.83,0.01-21.3,0.01-37.13,0.01c-1.98,0-2.7-0.7-2.71-2.69c-0.02-2.84-0.02-5.68-0.01-8.52
					c0-1.74,0.77-2.55,2.5-2.55C64.03,190.3,61.75,190.31,69.83,190.3z M151.86,206.95c-0.06-0.49-0.08-0.68-0.11-0.87
					c-0.36-2.29-0.86-4.57-1.05-6.87c-0.32-3.77,0.15-7.5,1.07-11.17c0.05-0.21-0.04-0.46-0.07-0.69c-0.2,0.07-0.43,0.1-0.6,0.22
					c-1.02,0.7-2,1.44-3.03,2.11c-4.67,3.08-9.56,5.68-15.06,6.99c-0.18,0.04-0.33,0.25-0.49,0.39c0.16,0.13,0.31,0.31,0.5,0.37
					c1.04,0.32,2.11,0.56,3.13,0.92c5.34,1.83,10.13,4.68,14.67,7.99C151.07,206.53,151.37,206.67,151.86,206.95z M199.6,224.13
					C199.61,224.13,199.61,224.13,199.6,224.13c0.01-0.66-0.02-1.32,0.02-1.98c0.03-0.71-0.29-0.98-0.97-0.97
					c-1.38,0.02-2.75-0.02-4.12,0.03c-0.25,0.01-0.7,0.35-0.7,0.55c-0.06,1.6-0.05,3.2,0,4.81c0.01,0.18,0.36,0.49,0.56,0.49
					c1.49,0.04,2.98,0.02,4.47,0.01c0.53,0,0.78-0.26,0.76-0.8C199.59,225.56,199.6,224.85,199.6,224.13z M212.26,227.09
					c0-0.01,0-0.02,0-0.03c0.72,0,1.43-0.01,2.15,0c0.51,0.01,0.75-0.24,0.75-0.72c0.01-1.46,0.04-2.92-0.03-4.37
					c-0.01-0.27-0.44-0.74-0.69-0.75c-1.46-0.07-2.92-0.04-4.38-0.02c-0.54,0.01-0.82,0.3-0.81,0.88c0.02,1.37,0.01,2.74,0,4.12
					c0,0.65,0.3,0.93,0.95,0.9C210.88,227.07,211.57,227.09,212.26,227.09z M201.54,224.12c0,0,0.01,0,0.01,0
					c0,0.74,0.01,1.49,0,2.23c-0.01,0.51,0.24,0.73,0.73,0.72c1.43-0.01,2.87-0.03,4.3-0.01c0.58,0.01,0.75-0.29,0.75-0.8
					c0-1.4,0.01-2.81,0.02-4.21c0-0.55-0.22-0.87-0.81-0.87c-1.4,0.01-2.81,0.01-4.21,0c-0.54,0-0.79,0.25-0.79,0.78
					C201.54,222.69,201.54,223.4,201.54,224.12z M184.09,224.27C184.1,224.27,184.1,224.27,184.09,224.27
					c0-0.69-0.02-1.38,0.01-2.06c0.03-0.69-0.23-1-0.94-0.98c-1.32,0.02-2.64,0.02-3.96-0.04c-0.74-0.03-0.96,0.3-0.95,0.97
					c0.02,1.32,0.02,2.63-0.01,3.95c-0.01,0.63,0.21,0.98,0.88,0.97c1.46-0.01,2.93,0.03,4.39-0.03c0.2-0.01,0.53-0.4,0.56-0.64
					C184.14,225.7,184.09,224.98,184.09,224.27z M217.04,224.15c0,0.66,0.02,1.32-0.01,1.98c-0.03,0.65,0.22,0.96,0.89,0.95
					c1.4-0.01,2.81,0.03,4.21-0.04c0.25-0.01,0.67-0.41,0.68-0.64c0.06-1.49,0.03-2.98,0.02-4.46c0-0.47-0.19-0.73-0.72-0.72
					c-1.4,0.02-2.81,0.03-4.21-0.01c-0.66-0.02-0.86,0.3-0.86,0.88C217.05,222.78,217.04,223.47,217.04,224.15z M209.25,185.46
					C209.25,185.46,209.25,185.46,209.25,185.46c0,0.69,0,1.37,0,2.06c0,0.49,0.18,0.86,0.73,0.86c1.46,0.01,2.92,0,4.38-0.02
					c0.51-0.01,0.79-0.25,0.79-0.8c-0.01-1.4-0.01-2.81,0-4.21c0-0.62-0.29-0.86-0.9-0.85c-1.37,0.02-2.75,0.01-4.13,0
					c-0.62,0-0.89,0.28-0.87,0.89C209.26,184.09,209.25,184.77,209.25,185.46z M224.78,185.48
					C224.77,185.48,224.77,185.48,224.78,185.48c-0.01,0.66,0.01,1.32-0.01,1.98c-0.02,0.61,0.25,0.91,0.86,0.92
					c1.41,0,2.81,0.01,4.22,0.01c0.52,0,0.8-0.26,0.8-0.79c0-1.41,0-2.81,0.01-4.22c0-0.55-0.21-0.87-0.81-0.86
					c-1.38,0.01-2.76,0.03-4.13-0.01c-0.74-0.02-0.96,0.34-0.93,1C224.79,184.16,224.78,184.82,224.78,185.48z M212.17,167.04
					c0,0,0-0.01,0-0.01c-0.63,0-1.26,0.03-1.89-0.01c-0.74-0.05-1.06,0.25-1.04,0.99c0.02,1.32,0.03,2.63,0,3.95
					c-0.01,0.66,0.28,0.95,0.92,0.94c1.38,0,2.75,0,4.13,0c0.61,0,0.88-0.3,0.87-0.91c-0.01-1.37-0.02-2.75,0-4.12
					c0.01-0.59-0.26-0.84-0.83-0.83C213.61,167.05,212.89,167.04,212.17,167.04z M199.61,185.45
					C199.61,185.45,199.61,185.45,199.61,185.45c0.01-0.66-0.02-1.32,0.01-1.98c0.03-0.71-0.28-0.98-0.97-0.97
					c-1.29,0.02-2.58,0.04-3.87,0c-0.75-0.03-1.05,0.26-1.03,0.99c0.02,1.35,0.02,2.69,0.01,4.04c0,0.58,0.28,0.84,0.84,0.84
					c1.4,0,2.81,0.01,4.21,0.01c0.58,0,0.82-0.3,0.8-0.87C199.59,186.83,199.61,186.14,199.61,185.45z M201.54,185.45
					c0.01,0,0.01,0,0.02,0c0,0.74-0.06,1.49,0.03,2.23c0.03,0.26,0.41,0.66,0.65,0.67c1.46,0.06,2.92,0.07,4.38,0
					c0.25-0.01,0.68-0.46,0.69-0.73c0.07-1.43,0.04-2.86,0.04-4.29c0-0.56-0.24-0.83-0.83-0.82c-1.37,0.02-2.75,0.02-4.12,0
					c-0.63-0.01-0.88,0.27-0.86,0.88C201.55,184.08,201.54,184.76,201.54,185.45z M212.17,198
					C212.17,198.01,212.17,198.01,212.17,198c-0.66,0.01-1.32,0.04-1.98,0c-0.66-0.04-0.95,0.23-0.95,0.89
					c0.01,1.37,0,2.75-0.01,4.12c0,0.52,0.23,0.83,0.76,0.84c1.46,0.01,2.92,0,4.38-0.01c0.52,0,0.78-0.26,0.77-0.81
					c-0.01-1.4-0.02-2.8-0.01-4.21c0.01-0.64-0.32-0.85-0.92-0.83C213.55,198.02,212.86,198,212.17,198z M162.76,208.59
					c0.01,0,0.01,0,0.02,0c0,0.72,0,1.43,0,2.15c0,0.6,0.27,0.88,0.9,0.86c1.4-0.03,2.81-0.03,4.21-0.01
					c0.56,0.01,0.67-0.29,0.67-0.75c0-1.37-0.02-2.75,0.02-4.12c0.03-0.78-0.36-1-1.04-0.99c-1.32,0.02-2.64,0.06-3.95,0.02
					c-0.68-0.02-0.85,0.29-0.83,0.88C162.78,207.27,162.76,207.93,162.76,208.59z M181.21,205.75c0,0,0,0.01,0,0.01
					c-0.72,0-1.44-0.07-2.15,0.03c-0.29,0.04-0.76,0.41-0.77,0.65c-0.06,1.46-0.03,2.92,0,4.38c0.01,0.54,0.28,0.8,0.88,0.79
					c1.38-0.04,2.75-0.03,4.13-0.01c0.6,0.01,0.81-0.25,0.81-0.83c-0.02-1.4-0.01-2.81,0-4.21c0.01-0.58-0.24-0.84-0.83-0.82
					C182.59,205.77,181.9,205.75,181.21,205.75z M199.61,169.91c0-0.66-0.02-1.32,0-1.98c0.02-0.6-0.21-0.91-0.85-0.91
					c-1.4,0.01-2.81-0.03-4.21,0.04c-0.27,0.01-0.74,0.43-0.75,0.68c-0.08,1.46-0.05,2.92-0.04,4.38c0,0.49,0.26,0.8,0.81,0.79
					c1.38-0.01,2.75-0.02,4.13-0.01c0.65,0,0.94-0.29,0.92-0.94C199.59,171.28,199.61,170.6,199.61,169.91z M219.94,172.91
					C219.94,172.9,219.94,172.9,219.94,172.91c0.69-0.01,1.38-0.04,2.07,0c0.61,0.03,0.82-0.26,0.82-0.82c0-1.43,0-2.87,0-4.3
					c0-0.5-0.23-0.75-0.73-0.75c-1.44,0-2.87-0.03-4.31,0.04c-0.26,0.01-0.71,0.45-0.72,0.71c-0.07,1.46-0.03,2.92-0.02,4.39
					c0,0.53,0.28,0.77,0.82,0.75C218.56,172.89,219.25,172.91,219.94,172.91z M173.42,182.51c0,0,0,0.01,0,0.01
					c-0.72,0-1.43,0.01-2.15,0c-0.54-0.01-0.78,0.24-0.77,0.78c0.01,1.4,0,2.81,0,4.21c0,0.59,0.23,0.9,0.87,0.89
					c1.4-0.03,2.81-0.06,4.21-0.02c0.56,0.01,0.75-0.27,0.75-0.7c0.02-1.49,0.01-2.98,0-4.47c-0.01-0.46-0.22-0.73-0.76-0.71
					C174.86,182.54,174.14,182.51,173.42,182.51z M235.43,182.51C235.43,182.52,235.43,182.52,235.43,182.51
					c-0.69,0.01-1.37,0.03-2.06,0c-0.54-0.02-0.81,0.19-0.81,0.74c0,1.46-0.04,2.92,0.03,4.37c0.01,0.26,0.45,0.7,0.71,0.72
					c1.43,0.07,2.86,0.04,4.29,0.04c0.54,0,0.78-0.26,0.77-0.8c-0.01-1.43-0.01-2.86-0.01-4.29c0-0.53-0.25-0.79-0.78-0.78
					C236.86,182.52,236.15,182.51,235.43,182.51z M181.17,203.87c0.69,0,1.38-0.01,2.07,0c0.57,0.01,0.87-0.21,0.87-0.8
					c0-1.43-0.01-2.87,0-4.3c0-0.54-0.22-0.78-0.78-0.78c-1.41,0.02-2.81,0.02-4.22,0c-0.54-0.01-0.82,0.22-0.83,0.75
					c-0.01,1.43-0.02,2.87-0.02,4.3c0,0.6,0.3,0.87,0.93,0.83C179.84,203.84,180.51,203.87,181.17,203.87z M222.85,200.9
					c-0.01,0-0.01,0-0.02,0c0-0.66-0.03-1.32,0.01-1.97c0.04-0.66-0.2-0.94-0.88-0.93c-1.34,0.03-2.69,0.03-4.04,0
					c-0.62-0.01-0.89,0.23-0.88,0.85c0.01,1.37,0.01,2.74-0.01,4.12c-0.01,0.61,0.24,0.9,0.87,0.89c1.37-0.01,2.75-0.01,4.12,0.01
					c0.65,0.01,0.85-0.33,0.84-0.91C222.84,202.27,222.85,201.58,222.85,200.9z M173.44,205.75
					C173.44,205.75,173.44,205.74,173.44,205.75c-0.69-0.01-1.38,0.02-2.06-0.02c-0.63-0.03-0.9,0.23-0.89,0.85
					c0.01,1.4,0.02,2.81,0.01,4.21c0,0.58,0.24,0.82,0.83,0.81c1.43-0.03,2.87,0,4.3-0.06c0.24-0.01,0.68-0.34,0.68-0.53
					c0.05-1.54,0.03-3.09-0.01-4.64c-0.01-0.47-0.27-0.69-0.8-0.64C174.82,205.8,174.13,205.75,173.44,205.75z M181.23,182.51
					C181.23,182.51,181.23,182.5,181.23,182.51c-0.63-0.01-1.27,0.06-1.89-0.03c-0.85-0.12-1.07,0.3-1.08,1.02
					c0,1.34,0,2.69-0.01,4.03c0,0.62,0.32,0.87,0.91,0.87c1.38-0.01,2.75-0.02,4.13-0.01c0.53,0,0.8-0.21,0.8-0.76
					c-0.01-1.46-0.01-2.92,0-4.38c0-0.55-0.27-0.76-0.8-0.75C182.6,182.52,181.91,182.51,181.23,182.51z M217.04,185.4
					c0,0.71,0.01,1.43,0,2.14c-0.01,0.57,0.25,0.85,0.82,0.85c1.4,0,2.81,0,4.21,0c0.53,0,0.78-0.26,0.77-0.8
					c-0.01-1.43-0.02-2.86-0.01-4.29c0-0.58-0.27-0.81-0.84-0.8c-1.35,0.02-2.69,0.03-4.04,0c-0.69-0.02-0.92,0.3-0.91,0.93
					C217.05,184.08,217.04,184.74,217.04,185.4z M219.96,211.6C219.96,211.6,219.96,211.6,219.96,211.6
					c0.69,0.01,1.38-0.01,2.07,0.01c0.54,0.02,0.81-0.2,0.81-0.75c0-1.46,0-2.92,0-4.39c0-0.5-0.25-0.73-0.74-0.73
					c-1.44,0.01-2.87-0.02-4.3,0.05c-0.25,0.01-0.68,0.39-0.69,0.62c-0.07,1.49-0.05,2.98-0.04,4.47c0,0.48,0.24,0.73,0.75,0.72
					C218.52,211.58,219.24,211.6,219.96,211.6z M173.41,203.86c0,0,0-0.01,0-0.01c0.69,0,1.38-0.02,2.06,0.01
					c0.53,0.02,0.84-0.2,0.85-0.73c0.02-1.49,0.03-2.98-0.03-4.47c-0.01-0.23-0.44-0.62-0.69-0.63c-1.43-0.06-2.87-0.02-4.3-0.02
					c-0.52,0-0.8,0.19-0.79,0.76c0.02,1.43,0.01,2.87-0.01,4.3c-0.01,0.6,0.28,0.81,0.85,0.8
					C172.03,203.85,172.72,203.86,173.41,203.86z M201.54,169.94C201.54,169.94,201.54,169.94,201.54,169.94
					c-0.01,0.66,0.02,1.32-0.01,1.98c-0.03,0.69,0.24,1,0.95,0.99c1.35-0.02,2.7-0.02,4.05,0c0.56,0.01,0.8-0.27,0.81-0.77
					c0.01-1.46,0-2.92-0.01-4.38c0-0.48-0.25-0.73-0.75-0.72c-1.41,0.01-2.81,0.01-4.22,0c-0.6-0.01-0.82,0.3-0.81,0.85
					C201.55,168.57,201.54,169.25,201.54,169.94z M238.37,208.69C238.37,208.69,238.37,208.69,238.37,208.69
					c-0.01-0.72-0.02-1.43,0-2.15c0.01-0.49-0.19-0.77-0.7-0.77c-1.46,0-2.93-0.03-4.39,0.04c-0.25,0.01-0.67,0.41-0.68,0.64
					c-0.06,1.49-0.03,2.98-0.02,4.47c0,0.45,0.19,0.68,0.68,0.68c1.44-0.02,2.87-0.02,4.31,0c0.59,0,0.83-0.26,0.82-0.84
					C238.36,210.07,238.37,209.38,238.37,208.69z M162.78,185.45c0,0,0.01,0,0.01,0c0,0.72,0.01,1.43,0,2.15
					c-0.01,0.55,0.23,0.79,0.77,0.78c1.41-0.01,2.81,0,4.22,0c0.52,0,0.79-0.24,0.79-0.79c-0.01-1.43-0.01-2.87,0-4.3
					c0-0.52-0.2-0.79-0.77-0.78c-1.38,0.02-2.76,0.02-4.13,0c-0.65-0.01-0.88,0.3-0.88,0.88
					C162.78,184.07,162.78,184.76,162.78,185.45z M191.82,224.2c-0.01,0-0.02,0-0.04,0c0-0.72-0.03-1.43,0.01-2.15
					c0.03-0.58-0.2-0.86-0.78-0.86c-1.41,0-2.81-0.03-4.22,0.04c-0.27,0.01-0.72,0.45-0.74,0.71c-0.07,1.49-0.05,2.98,0,4.47
					c0.01,0.23,0.3,0.64,0.47,0.65c1.55,0.05,3.1,0.05,4.64-0.02c0.22-0.01,0.58-0.43,0.62-0.69
					C191.88,225.64,191.82,224.92,191.82,224.2z M215.15,208.66C215.15,208.66,215.15,208.66,215.15,208.66
					c-0.01-0.72,0.06-1.44-0.04-2.14c-0.04-0.28-0.44-0.72-0.69-0.73c-1.46-0.07-2.92-0.04-4.38-0.03c-0.5,0-0.8,0.24-0.79,0.79
					c0.01,1.4,0.02,2.8,0,4.2c-0.01,0.64,0.31,0.85,0.91,0.85c1.4-0.02,2.81-0.03,4.21-0.03c0.54,0,0.8-0.22,0.79-0.77
					C215.14,210.09,215.15,209.38,215.15,208.66z M181.12,172.91C181.12,172.91,181.12,172.91,181.12,172.91
					c0.72,0,1.44-0.01,2.15,0.01c0.6,0.02,0.83-0.26,0.83-0.82c-0.01-1.43-0.01-2.87,0-4.3c0-0.5-0.22-0.75-0.72-0.75
					c-1.46,0-2.93-0.03-4.39,0.04c-0.25,0.01-0.68,0.42-0.69,0.66c-0.06,1.46-0.05,2.92-0.03,4.38c0.01,0.53,0.26,0.84,0.87,0.8
					C179.8,172.87,180.46,172.91,181.12,172.91z M199.61,200.9c0-0.66-0.02-1.32,0-1.97c0.02-0.65-0.26-0.93-0.92-0.92
					c-1.37,0.02-2.75,0.01-4.12-0.01c-0.55-0.01-0.79,0.25-0.79,0.77c-0.01,1.43-0.05,2.86,0.01,4.29c0.01,0.27,0.42,0.75,0.67,0.76
					c1.46,0.07,2.92,0.03,4.38,0.02c0.52,0,0.79-0.25,0.77-0.8C199.59,202.33,199.61,201.61,199.61,200.9z M227.71,211.57
					c0,0.01,0,0.02,0,0.02c0.66,0,1.32-0.03,1.98,0.01c0.65,0.04,0.96-0.21,0.96-0.88c-0.01-1.38,0-2.75,0.02-4.13
					c0-0.52-0.23-0.83-0.76-0.83c-1.46-0.01-2.93-0.01-4.39,0c-0.53,0-0.77,0.29-0.76,0.82c0.01,1.4,0.02,2.81,0.02,4.21
					c0,0.53,0.24,0.79,0.79,0.78C226.28,211.55,227,211.57,227.71,211.57z M207.35,208.72c-0.01,0-0.01,0-0.02,0
					c0-0.69-0.05-1.38,0.01-2.06c0.06-0.66-0.24-0.89-0.83-0.89c-1.38,0-2.76,0-4.13-0.01c-0.56,0-0.85,0.21-0.84,0.81
					c0.02,1.38,0.02,2.75,0,4.13c-0.01,0.61,0.22,0.9,0.86,0.89c1.44-0.02,2.87,0.03,4.31-0.03c0.23-0.01,0.59-0.42,0.62-0.68
					C207.4,210.16,207.35,209.44,207.35,208.72z M193.77,208.7c0,0-0.01,0-0.01,0c0,0.72,0,1.43,0,2.15c0,0.49,0.25,0.74,0.74,0.74
					c1.43,0,2.86-0.01,4.29-0.01c0.57,0,0.83-0.27,0.82-0.84c-0.01-1.4-0.01-2.8,0-4.2c0-0.5-0.22-0.77-0.7-0.77
					c-1.49-0.01-2.98,0-4.46,0.01c-0.49,0.01-0.7,0.28-0.68,0.78C193.79,207.27,193.77,207.99,193.77,208.7z M227.68,198.01
					c-0.66,0-1.32,0.02-1.98-0.01c-0.65-0.03-0.96,0.22-0.95,0.89c0.02,1.38,0.02,2.75,0,4.13c-0.01,0.62,0.33,0.81,0.86,0.81
					c1.38,0.01,2.75,0.02,4.13,0.02c0.58,0,0.91-0.24,0.91-0.88c-0.02-1.38-0.02-2.75,0-4.13c0.01-0.64-0.31-0.86-0.91-0.85
					C229.06,198.01,228.37,198,227.68,198.01z M204.44,198.01C204.44,198.01,204.44,198.01,204.44,198.01
					c-0.66,0.01-1.32,0.04-1.98,0c-0.67-0.04-0.93,0.24-0.92,0.9c0.02,1.34,0.03,2.69-0.01,4.03c-0.02,0.67,0.25,0.93,0.91,0.92
					c1.37-0.02,2.75-0.02,4.12-0.01c0.52,0,0.79-0.2,0.79-0.76c-0.02-1.43-0.01-2.86,0-4.29c0-0.58-0.27-0.82-0.85-0.8
					C205.81,198.03,205.12,198.01,204.44,198.01z M232.56,200.83C232.56,200.83,232.57,200.83,232.56,200.83
					c0.01,0.75,0.02,1.49,0,2.24c-0.01,0.49,0.18,0.78,0.69,0.78c1.46,0.01,2.93,0,4.39,0c0.51,0,0.72-0.26,0.71-0.75
					c-0.01-1.43-0.01-2.87-0.01-4.3c0-0.52-0.22-0.79-0.78-0.79c-1.41,0.01-2.81,0.01-4.22-0.01c-0.61-0.01-0.81,0.29-0.8,0.85
					C232.57,199.51,232.56,200.17,232.56,200.83z M165.73,198.01c-0.75,0-1.5-0.06-2.23,0.03c-0.26,0.03-0.67,0.41-0.68,0.64
					c-0.06,1.49-0.06,2.98,0,4.46c0.01,0.24,0.41,0.67,0.65,0.68c1.43,0.06,2.87,0.07,4.3,0c0.28-0.01,0.75-0.42,0.76-0.66
					c0.07-1.49,0.03-2.98,0.03-4.46c0-0.53-0.29-0.69-0.77-0.69C167.11,198.02,166.42,198.01,165.73,198.01z M191.82,185.48
					c-0.02,0-0.04,0-0.06,0c0-0.75,0-1.49,0-2.24c0-0.53-0.21-0.75-0.79-0.73c-1.32,0.04-2.64,0.04-3.96-0.01
					c-0.77-0.03-1.01,0.3-1,1.02c0.03,1.29,0.06,2.58,0,3.87c-0.03,0.79,0.33,1.01,1.02,1.01c1.29-0.01,2.58-0.02,3.88,0
					c0.67,0.01,0.93-0.29,0.9-0.94C191.8,186.8,191.82,186.14,191.82,185.48z M196.58,180.59c0,0,0-0.01,0-0.01
					c0.72,0,1.43-0.02,2.15,0.01c0.61,0.02,0.89-0.22,0.88-0.85c-0.02-1.37-0.01-2.75,0-4.12c0.01-0.54-0.21-0.8-0.76-0.8
					c-1.46,0.01-2.92-0.02-4.38,0.04c-0.24,0.01-0.67,0.41-0.68,0.64c-0.06,1.46-0.04,2.92-0.03,4.38c0,0.46,0.21,0.74,0.75,0.72
					C195.2,180.56,195.89,180.59,196.58,180.59z M186.05,169.91c-0.01,0-0.01,0-0.02,0c0,0.72,0,1.43,0,2.15
					c0,0.55,0.22,0.86,0.81,0.86c1.4-0.01,2.81,0.02,4.21-0.04c0.25-0.01,0.67-0.39,0.68-0.62c0.06-1.54,0.06-3.09,0.01-4.63
					c-0.01-0.21-0.42-0.56-0.65-0.57c-1.43-0.05-2.86-0.02-4.3-0.01c-0.52,0-0.78,0.25-0.76,0.8
					C186.07,168.53,186.05,169.22,186.05,169.91z M212.16,196.07C212.16,196.07,212.16,196.08,212.16,196.07
					c0.69,0.01,1.38-0.03,2.06,0.02c0.69,0.05,0.93-0.25,0.92-0.89c-0.01-1.37,0-2.75,0.01-4.12c0.01-0.54-0.24-0.8-0.77-0.8
					c-1.46,0-2.92-0.03-4.38,0.03c-0.26,0.01-0.71,0.44-0.73,0.69c-0.07,1.46-0.03,2.92-0.02,4.37c0,0.5,0.25,0.71,0.76,0.7
					C210.73,196.06,211.45,196.07,212.16,196.07z M212.28,174.82c0-0.01,0-0.01,0-0.02c-0.72,0-1.43,0.01-2.15,0
					c-0.61-0.01-0.89,0.26-0.88,0.89c0.02,1.35,0.02,2.69,0,4.04c-0.01,0.63,0.29,0.88,0.89,0.87c1.41-0.02,2.81-0.03,4.22-0.03
					c0.53,0,0.79-0.23,0.78-0.77c-0.01-1.4-0.01-2.81-0.01-4.21c0-0.55-0.25-0.78-0.79-0.77
					C213.66,174.83,212.97,174.82,212.28,174.82z M191.82,200.91c-0.01,0-0.02,0-0.03,0c0-0.72-0.02-1.43,0.01-2.15
					c0.02-0.55-0.19-0.77-0.75-0.76c-1.38,0.02-2.75,0.02-4.13-0.01c-0.61-0.01-0.91,0.2-0.9,0.84c0.02,1.4,0.02,2.81,0.01,4.21
					c0,0.57,0.21,0.84,0.81,0.83c1.35-0.02,2.7-0.04,4.04,0c0.74,0.02,0.96-0.32,0.94-0.98
					C191.8,202.23,191.82,201.57,191.82,200.91z M193.78,193.23C193.78,193.23,193.78,193.23,193.78,193.23
					c0.01,0.72-0.05,1.44,0.04,2.14c0.03,0.26,0.4,0.66,0.63,0.67c1.46,0.05,2.92,0.01,4.38,0.01c0.6,0,0.8-0.31,0.79-0.87
					c-0.01-1.35-0.02-2.69,0-4.04c0.01-0.62-0.26-0.87-0.88-0.87c-1.38,0.01-2.75,0-4.13-0.02c-0.59-0.01-0.84,0.26-0.84,0.83
					C193.78,191.8,193.78,192.52,193.78,193.23z M181.17,190.29C181.17,190.29,181.17,190.29,181.17,190.29
					c-0.69,0-1.38,0.05-2.06-0.01c-0.63-0.06-0.84,0.22-0.85,0.78c0,1.4,0,2.81,0,4.21c0,0.56,0.21,0.84,0.82,0.82
					c1.41-0.03,2.81-0.03,4.22,0c0.6,0.01,0.82-0.23,0.81-0.81c-0.02-1.38-0.02-2.75,0.01-4.13c0.01-0.64-0.26-0.88-0.88-0.86
					C182.55,190.3,181.86,190.29,181.17,190.29z M232.57,193.15c0,0,0.01,0,0.01,0c0,0.69,0.03,1.38-0.01,2.06
					c-0.04,0.64,0.22,0.88,0.84,0.87c1.4-0.02,2.81-0.03,4.21-0.01c0.54,0.01,0.72-0.24,0.73-0.72c0-1.46,0.03-2.92-0.02-4.38
					c-0.01-0.24-0.41-0.64-0.65-0.65c-1.46-0.06-2.92-0.03-4.38-0.04c-0.56,0-0.75,0.29-0.74,0.81
					C232.58,191.78,232.57,192.46,232.57,193.15z M165.58,190.27c0,0,0,0.01,0,0.01c-0.66,0-1.32,0.04-1.98-0.01
					c-0.56-0.04-0.81,0.17-0.81,0.71c-0.01,1.46-0.03,2.92,0.02,4.38c0.01,0.24,0.35,0.67,0.55,0.67c1.52,0.06,3.04,0.03,4.56,0.03
					c0.46,0,0.66-0.23,0.65-0.7c-0.02-1.43-0.02-2.87,0.01-4.3c0.01-0.63-0.3-0.8-0.84-0.8
					C167.02,190.27,166.3,190.27,165.58,190.27z M191.76,208.66c0.02,0,0.04,0,0.05,0c0-0.66-0.04-1.32,0.01-1.97
					c0.05-0.68-0.25-0.94-0.89-0.94c-1.38,0.01-2.75,0-4.13,0c-0.47,0-0.76,0.16-0.76,0.7c0.01,1.46,0,2.92-0.01,4.39
					c0,0.55,0.24,0.75,0.8,0.74c1.41-0.03,2.81-0.03,4.22,0.01c0.55,0.02,0.73-0.2,0.72-0.69
					C191.76,210.15,191.76,209.4,191.76,208.66z M227.8,174.82C227.8,174.82,227.8,174.82,227.8,174.82c-0.75,0.01-1.49,0.02-2.24,0
					c-0.54-0.01-0.79,0.22-0.79,0.76c0.01,1.4,0.02,2.81,0,4.21c-0.01,0.55,0.23,0.78,0.77,0.78c1.43,0,2.87,0.01,4.3,0.02
					c0.53,0,0.8-0.22,0.8-0.77c-0.01-1.4-0.01-2.81,0-4.21c0-0.59-0.3-0.81-0.86-0.8C229.12,174.83,228.46,174.82,227.8,174.82z
					 M227.72,196.07C227.72,196.07,227.72,196.07,227.72,196.07c0.69-0.01,1.38-0.04,2.06,0c0.58,0.03,0.86-0.18,0.86-0.77
					c0-1.4,0-2.81,0.02-4.21c0.01-0.55-0.26-0.8-0.78-0.8c-1.46-0.01-2.92,0-4.39,0c-0.49,0-0.74,0.24-0.73,0.74
					c0.01,1.4,0.02,2.81,0.01,4.21c0,0.61,0.24,0.89,0.88,0.84C226.34,196.04,227.03,196.07,227.72,196.07z M173.44,190.28
					C173.44,190.28,173.44,190.28,173.44,190.28c-0.72,0.01-1.43,0.02-2.15,0c-0.59-0.02-0.81,0.24-0.8,0.83
					c0.02,1.34,0.03,2.69-0.01,4.03c-0.02,0.73,0.29,0.95,0.97,0.93c1.37-0.03,2.75-0.02,4.13,0.01c0.54,0.01,0.74-0.25,0.75-0.71
					c0.01-1.46,0.01-2.92-0.01-4.38c-0.01-0.49-0.22-0.78-0.81-0.73C174.82,190.32,174.13,190.28,173.44,190.28z M170.51,177.7
					c0,0.69,0.02,1.37-0.01,2.06c-0.02,0.59,0.24,0.82,0.82,0.81c1.43-0.02,2.86-0.03,4.29,0c0.56,0.01,0.71-0.27,0.71-0.73
					c0.01-1.43,0.01-2.86,0.01-4.29c0-0.54-0.28-0.75-0.81-0.74c-1.4,0.02-2.8,0.01-4.21,0c-0.59-0.01-0.82,0.25-0.8,0.83
					C170.53,176.33,170.51,177.02,170.51,177.7z M204.44,180.57C204.44,180.57,204.44,180.57,204.44,180.57
					c0.75-0.01,1.5,0.04,2.23-0.03c0.24-0.02,0.62-0.36,0.63-0.57c0.05-1.49,0.06-2.98,0-4.47c-0.01-0.23-0.43-0.63-0.67-0.64
					c-1.46-0.06-2.93-0.03-4.39-0.04c-0.46,0-0.7,0.19-0.69,0.66c0.01,1.46,0.01,2.93,0,4.39c0,0.51,0.23,0.72,0.74,0.71
					C203,180.56,203.72,180.57,204.44,180.57z M212.21,213.51C212.21,213.51,212.21,213.51,212.21,213.51
					c-0.72,0.01-1.44,0.01-2.15,0c-0.53-0.01-0.8,0.23-0.8,0.77c0,1.4,0,2.81,0,4.21c0,0.53,0.25,0.79,0.78,0.79
					c1.44,0,2.87,0,4.31,0c0.52,0,0.8-0.22,0.8-0.77c-0.01-1.4-0.01-2.81,0-4.21c0-0.6-0.3-0.81-0.86-0.8
					C213.59,213.52,212.9,213.51,212.21,213.51z M181.1,180.57c0.75,0,1.49-0.01,2.24,0c0.48,0.01,0.76-0.17,0.76-0.7
					c-0.01-1.46,0.03-2.93-0.03-4.39c-0.01-0.23-0.43-0.64-0.67-0.65c-1.46-0.06-2.93-0.02-4.39-0.02c-0.51,0-0.73,0.24-0.73,0.73
					c0,1.4,0,2.81,0,4.21c0,0.57,0.26,0.83,0.85,0.8C179.77,180.54,180.43,180.57,181.1,180.57z M227.66,213.51
					C227.66,213.51,227.66,213.51,227.66,213.51c-0.63,0-1.26,0.04-1.89-0.01c-0.7-0.05-1,0.22-0.99,0.93
					c0.02,1.32,0.03,2.63,0,3.95c-0.02,0.68,0.29,0.91,0.93,0.91c1.38-0.02,2.75-0.01,4.13,0c0.59,0.01,0.83-0.28,0.82-0.84
					c-0.01-1.37-0.01-2.75-0.01-4.12c0-0.57-0.26-0.84-0.84-0.82C229.09,213.53,228.37,213.51,227.66,213.51z M204.41,196.06
					C204.41,196.06,204.41,196.06,204.41,196.06c0.69,0.01,1.38-0.02,2.06,0.01c0.63,0.03,0.88-0.23,0.87-0.86
					c-0.02-1.37-0.03-2.75-0.01-4.12c0.01-0.6-0.24-0.83-0.81-0.82c-1.43,0.01-2.86-0.02-4.29,0.04c-0.24,0.01-0.65,0.41-0.66,0.64
					c-0.06,1.46-0.03,2.92-0.04,4.37c0,0.49,0.22,0.74,0.73,0.73C202.98,196.05,203.7,196.06,204.41,196.06z M196.63,213.52
					c-0.69,0-1.38,0.03-2.06-0.01c-0.57-0.03-0.79,0.24-0.8,0.75c-0.01,1.43-0.04,2.86,0.03,4.29c0.01,0.26,0.46,0.69,0.72,0.7
					c1.46,0.07,2.92,0.06,4.38,0c0.25-0.01,0.67-0.4,0.68-0.63c0.06-1.46,0.04-2.91,0.04-4.37c0-0.49-0.25-0.73-0.74-0.73
					C198.12,213.52,197.37,213.52,196.63,213.52z M220.04,190.3C220.04,190.3,220.04,190.29,220.04,190.3
					c-0.75-0.01-1.49,0-2.24-0.01c-0.55-0.01-0.78,0.25-0.78,0.78c0.01,1.43-0.02,2.86,0.04,4.29c0.01,0.25,0.39,0.67,0.61,0.68
					c1.49,0.06,2.98,0.06,4.47-0.01c0.24-0.01,0.66-0.41,0.67-0.64c0.06-1.46,0.03-2.92,0.03-4.38c0-0.5-0.23-0.73-0.74-0.72
					C221.42,190.31,220.73,190.3,220.04,190.3z M201.55,216.44C201.55,216.44,201.55,216.44,201.55,216.44
					c-0.01,0.69,0,1.38-0.01,2.06c-0.01,0.54,0.21,0.79,0.76,0.79c1.44-0.01,2.87-0.01,4.31,0c0.51,0,0.73-0.25,0.73-0.73
					c0-1.43,0-2.87-0.01-4.3c0-0.47-0.18-0.76-0.71-0.75c-1.46,0.02-2.93,0.02-4.39,0.01c-0.47,0-0.68,0.23-0.68,0.68
					C201.55,214.94,201.55,215.69,201.55,216.44z M181.2,213.52C181.2,213.52,181.2,213.52,181.2,213.52c-0.69,0-1.38,0.03-2.07,0
					c-0.58-0.03-0.86,0.21-0.86,0.79c0,1.41,0,2.81,0,4.22c0,0.47,0.19,0.76,0.71,0.76c1.46,0,2.93,0,4.39,0
					c0.49,0,0.73-0.22,0.72-0.74c-0.01-1.43-0.01-2.87,0-4.3c0-0.5-0.24-0.73-0.74-0.72C182.64,213.52,181.92,213.52,181.2,213.52z
					 M173.44,213.52c-0.75,0-1.49,0.01-2.24,0c-0.46-0.01-0.69,0.19-0.69,0.67c0.01,1.46-0.03,2.93,0.03,4.39
					c0.01,0.24,0.41,0.67,0.64,0.68c1.49,0.06,2.98,0.06,4.48,0c0.23-0.01,0.62-0.38,0.63-0.6c0.06-1.46,0.04-2.92,0.02-4.38
					c0-0.51-0.25-0.78-0.81-0.75C174.81,213.54,174.12,213.51,173.44,213.52z M217.05,177.63
					C217.05,177.63,217.05,177.63,217.05,177.63c0,0.69,0.01,1.38-0.01,2.07c-0.01,0.6,0.21,0.89,0.86,0.87
					c1.35-0.03,2.7-0.03,4.05,0c0.62,0.01,0.89-0.21,0.88-0.84c-0.02-1.38-0.02-2.75,0-4.13c0.01-0.53-0.19-0.79-0.75-0.78
					c-1.41,0.02-2.81,0.02-4.22,0c-0.59-0.01-0.83,0.26-0.81,0.83C217.06,176.31,217.05,176.97,217.05,177.63z M219.94,219.28
					C219.94,219.28,219.94,219.28,219.94,219.28c0.72,0,1.43-0.01,2.15,0c0.5,0.01,0.75-0.2,0.74-0.71
					c-0.01-1.46-0.01-2.92-0.01-4.38c0-0.45-0.2-0.68-0.68-0.67c-1.46,0.01-2.93-0.03-4.38,0.03c-0.24,0.01-0.66,0.4-0.67,0.63
					c-0.06,1.46-0.03,2.92-0.04,4.38c0,0.5,0.24,0.73,0.74,0.72C218.5,219.27,219.22,219.28,219.94,219.28z M188.99,190.26
					C188.99,190.27,188.99,190.27,188.99,190.26c-0.69,0-1.38,0.03-2.06,0c-0.66-0.03-0.94,0.22-0.92,0.9
					c0.03,1.34,0.03,2.69,0.01,4.03c-0.01,0.66,0.23,0.93,0.91,0.91c1.37-0.04,2.75-0.05,4.12-0.03c0.52,0.01,0.73-0.17,0.73-0.68
					c0-1.46,0.03-2.91,0.04-4.37c0.01-0.57-0.24-0.82-0.85-0.77C190.31,190.31,189.65,190.26,188.99,190.26z M188.86,174.82
					c-0.66,0-1.32,0.01-1.97,0c-0.6-0.02-0.89,0.2-0.87,0.85c0.03,1.37,0.03,2.74,0,4.12c-0.01,0.6,0.26,0.82,0.82,0.82
					c1.4-0.01,2.8-0.02,4.21,0c0.51,0.01,0.73-0.21,0.72-0.71c-0.01-1.43-0.02-2.86,0-4.29c0.01-0.61-0.29-0.8-0.85-0.78
					C190.24,174.83,189.55,174.82,188.86,174.82z M188.91,219.28c0.72,0,1.44-0.03,2.15,0.01c0.54,0.03,0.71-0.22,0.71-0.71
					c0-1.43,0.02-2.86,0.03-4.29c0-0.51-0.19-0.78-0.77-0.77c-1.4,0.02-2.81,0.01-4.22-0.01c-0.53-0.01-0.8,0.2-0.79,0.75
					c0.01,1.43,0.01,2.86,0,4.3c0,0.5,0.23,0.73,0.73,0.73C187.48,219.27,188.19,219.28,188.91,219.28z M232.57,177.69
					C232.57,177.69,232.57,177.69,232.57,177.69c-0.01,0.63,0.03,1.26-0.02,1.89c-0.05,0.72,0.19,1.06,0.96,1.04
					c1.37-0.04,2.75-0.04,4.12-0.03c0.52,0,0.72-0.25,0.72-0.73c0-1,0.03-2-0.01-3.01c-0.04-0.9-1.22-2.01-2.11-2.02
					c-0.95-0.01-1.89,0.02-2.84,0c-0.52-0.01-0.83,0.17-0.83,0.72C232.57,176.26,232.57,176.97,232.57,177.69z M235.47,213.52
					C235.47,213.51,235.47,213.51,235.47,213.52c-0.72-0.01-1.43,0.01-2.15-0.01c-0.52-0.02-0.74,0.24-0.74,0.72
					c-0.01,1.43-0.01,2.86-0.02,4.3c0,0.54,0.23,0.78,0.78,0.77c0.97-0.02,1.95,0.01,2.92-0.02c0.88-0.02,2.07-1.16,2.1-2.04
					c0.03-0.97-0.01-1.95,0-2.92c0-0.56-0.22-0.84-0.82-0.81C236.85,213.54,236.16,213.52,235.47,213.52z M224.77,224.11
					c0,0.72-0.06,1.44,0.03,2.14c0.04,0.3,0.38,0.77,0.62,0.79c0.99,0.09,1.94,0.04,2.87-0.56c2.89-1.84,2.27-0.98,2.36-4.29
					c0.02-0.73-0.3-1.04-1.03-1.02c-1.35,0.03-2.69,0.01-4.04,0.01c-0.52,0-0.81,0.24-0.82,0.78
					C224.77,222.68,224.77,223.4,224.77,224.11z M224.77,169.86C224.77,169.86,224.77,169.86,224.77,169.86
					c0.01,0.72,0.02,1.43,0.01,2.15c-0.01,0.62,0.28,0.89,0.89,0.89c1.38-0.01,2.75,0,4.13,0c0.62,0,0.87-0.32,0.87-0.92
					c-0.01-0.74,0.04-1.49-0.03-2.23c-0.03-0.33-0.22-0.75-0.47-0.93c-0.87-0.6-1.75-1.23-2.72-1.61c-0.65-0.25-1.46-0.15-2.19-0.1
					c-0.17,0.01-0.43,0.44-0.46,0.69C224.72,168.48,224.77,169.17,224.77,169.86z M168.56,177.79
					C168.56,177.79,168.57,177.79,168.56,177.79c0.01-0.4,0.01-0.8,0.01-1.2c0.01-2.05,0.11-1.68-1.82-1.79
					c-1.29-0.07-2.37,0.11-3.06,1.34c-0.26,0.46-0.76,0.86-0.84,1.33c-0.14,0.8-0.07,1.65,0.01,2.47c0.02,0.23,0.39,0.59,0.61,0.6
					c1.46,0.05,2.92,0.02,4.38,0.03c0.5,0,0.73-0.21,0.72-0.73C168.55,179.16,168.56,178.47,168.56,177.79z M168.57,216.4
					c0-0.69-0.02-1.38,0.01-2.06c0.02-0.58-0.21-0.84-0.81-0.83c-0.95,0.02-1.89-0.01-2.84,0.01c-2.27,0.04-2.15-0.44-2.1,2.08
					c0.01,0.55,0,1.2,0.27,1.64c0.88,1.47,2.08,2.49,3.98,2.06c0.14-0.03,0.29-0.02,0.43,0c0.86,0.13,1.12-0.29,1.06-1.08
					C168.54,217.61,168.57,217,168.57,216.4z M176.33,224.12c0.01,0,0.01,0,0.02,0c0-0.71,0.01-1.43,0-2.14
					c-0.01-0.54-0.24-0.81-0.86-0.79c-1,0.04-2,0-3,0c-2.02,0-2.04,0-1.98,2.02c0.01,0.46,0.06,1.11,0.35,1.32
					c1.25,0.9,2.52,1.83,3.93,2.42c1.15,0.48,1.69,0.14,1.55-1.12C176.27,225.27,176.33,224.69,176.33,224.12z M173.39,172.9
					C173.39,172.9,173.39,172.9,173.39,172.9c0.63,0.01,1.26-0.03,1.89,0.01c0.78,0.05,1.09-0.27,1.07-1.05
					c-0.03-1.17-0.08-2.35,0.02-3.52c0.12-1.4-0.77-1.62-1.89-1.08c-0.77,0.37-1.43,0.98-2.21,1.31c-1.55,0.65-2.05,1.76-1.77,3.34
					c0.01,0.08,0,0.17,0,0.26c0,0.49,0.23,0.74,0.74,0.73C171.96,172.89,172.68,172.9,173.39,172.9z M240.3,200.9c0,0-0.01,0-0.01,0
					c0,0.72,0.01,1.43,0,2.15c-0.01,0.49,0.19,0.78,0.69,0.78c0.98,0.01,1.95,0.05,2.92-0.03c0.27-0.02,0.69-0.37,0.73-0.63
					c0.24-1.47,0.4-2.95,0.57-4.43c0.06-0.51-0.21-0.75-0.71-0.74c-1.15,0-2.3,0.01-3.45,0.01c-0.56,0-0.76,0.3-0.75,0.82
					C240.3,199.52,240.3,200.21,240.3,200.9z M158.43,198c-0.54,0-1.09,0.02-1.63-0.01c-0.53-0.02-0.86,0.17-0.8,0.73
					c0.15,1.45,0.33,2.89,0.51,4.34c0.07,0.58,0.39,0.84,1,0.81c0.8-0.03,1.61-0.03,2.41-0.01c0.65,0.01,0.95-0.28,0.94-0.93
					c-0.01-0.83,0-1.66-0.01-2.49C160.81,197.59,161.14,198.06,158.43,198z M240.29,193.13
					C240.29,193.13,240.29,193.13,240.29,193.13c0,0.72,0,1.43,0,2.15c0,0.47,0.17,0.78,0.69,0.78c1.2,0,2.41,0.04,3.61-0.01
					c0.21-0.01,0.6-0.42,0.58-0.61c-0.12-1.48-0.33-2.95-0.5-4.43c-0.06-0.54-0.36-0.73-0.87-0.72c-0.92,0.01-1.84,0.01-2.75,0
					c-0.53,0-0.79,0.23-0.77,0.78C240.31,191.75,240.29,192.44,240.29,193.13z M160.83,193.19c0,0,0.01,0,0.01,0
					c0-0.69,0.01-1.37,0-2.06c-0.01-0.55-0.27-0.84-0.85-0.84c-0.86,0.01-1.72,0.02-2.58-0.01c-0.52-0.01-0.83,0.2-0.9,0.71
					c-0.19,1.47-0.36,2.95-0.53,4.42c-0.05,0.47,0.19,0.67,0.66,0.67c1.15-0.02,2.29-0.02,3.44-0.01c0.51,0,0.74-0.24,0.74-0.73
					C160.83,194.62,160.83,193.9,160.83,193.19z M204.48,229.02C204.48,229.02,204.48,229.01,204.48,229.02
					c-0.69-0.01-1.37,0.01-2.06-0.02c-0.6-0.02-0.91,0.18-0.88,0.83c0.03,0.8,0.02,1.6,0,2.4c-0.02,0.58,0.22,0.84,0.81,0.82
					c1.4-0.06,2.8-0.1,4.2-0.14c0.53-0.01,0.8-0.27,0.8-0.79c0.01-0.8-0.01-1.6,0-2.4c0.01-0.5-0.2-0.73-0.72-0.72
					C205.91,229.04,205.2,229.02,204.48,229.02z M204.45,165.07c0,0.01,0,0.01,0,0.02c0.66,0,1.32-0.02,1.98,0.01
					c0.61,0.03,0.98-0.1,0.92-0.85c-0.06-0.74,0.01-1.49,0.01-2.23c0-0.5-0.2-0.82-0.75-0.84c-1.46-0.04-2.92-0.09-4.38-0.13
					c-0.46-0.01-0.68,0.2-0.68,0.67c0.01,0.89,0.02,1.78,0.01,2.66c-0.01,0.53,0.27,0.7,0.75,0.69
					C203.01,165.06,203.73,165.07,204.45,165.07z M196.71,229.01c0,0,0-0.01,0-0.01c-0.66,0-1.32,0.03-1.98-0.01
					c-0.69-0.04-1.02,0.2-0.98,0.93c0.04,0.66,0.03,1.32,0,1.98c-0.02,0.61,0.25,0.9,0.85,0.93c1.4,0.07,2.81,0.13,4.21,0.21
					c0.59,0.03,0.82-0.25,0.8-0.83c-0.03-0.8-0.03-1.6,0-2.41c0.02-0.61-0.28-0.81-0.84-0.8
					C198.09,229.02,197.4,229.01,196.71,229.01z M196.7,165.07C196.7,165.07,196.7,165.07,196.7,165.07c0.74,0,1.5,0.05,2.23-0.03
					c0.25-0.03,0.62-0.4,0.65-0.65c0.08-0.85,0.02-1.71,0.04-2.57c0.02-0.55-0.22-0.79-0.76-0.77c-1.26,0.05-2.52,0.05-3.77,0.17
					c-1.32,0.13-1.32,0.18-1.32,1.54c0,0.51,0.03,1.03,0.02,1.54c-0.02,0.55,0.24,0.78,0.78,0.77
					C195.27,165.07,195.98,165.07,196.7,165.07z M212.28,229.01c-0.69,0-1.38,0.03-2.07-0.01c-0.76-0.05-1.04,0.29-0.99,1.02
					c0.04,0.54,0.01,1.09,0.02,1.63c0.02,0.86,0.2,1.02,1.04,0.88c1.19-0.2,2.37-0.41,3.56-0.61c1.2-0.2,1.3-0.31,1.3-1.55
					c0-0.2,0.01-0.4,0.01-0.6c0.01-0.5-0.23-0.75-0.72-0.75C213.72,229.01,213,229.01,212.28,229.01z M212.15,165.07
					c0,0.02,0,0.04,0,0.06c0.69,0,1.37-0.02,2.06,0.01c0.64,0.02,0.99-0.2,0.94-0.89c-0.02-0.28-0.03-0.57,0-0.86
					c0.06-0.62-0.17-0.95-0.81-1.06c-1.44-0.24-2.86-0.53-4.3-0.78c-0.57-0.1-0.77,0.27-0.78,0.76c-0.02,0.66,0.01,1.32-0.01,1.97
					c-0.02,0.55,0.23,0.79,0.77,0.78C210.72,165.06,211.43,165.07,212.15,165.07z M188.99,229.02
					C188.99,229.02,188.99,229.02,188.99,229.02c-0.49-0.01-0.97-0.01-1.46-0.01c-1.46,0.01-1.84,0.48-1.48,1.91
					c0.06,0.23,0.31,0.54,0.52,0.59c1.51,0.32,3.02,0.6,4.54,0.82c0.2,0.03,0.63-0.32,0.66-0.53c0.09-0.7,0.04-1.42,0.04-2.14
					c0-0.46-0.21-0.67-0.68-0.66C190.42,229.03,189.7,229.02,188.99,229.02z M188.89,165.13c0-0.02,0-0.04,0-0.05
					c0.52,0,1.03,0,1.55,0c1.31,0,1.31,0,1.36-1.26c0.02-0.4-0.02-0.8,0.02-1.2c0.08-0.83-0.34-1.01-1.04-0.87
					c-1.1,0.22-2.19,0.44-3.29,0.66c-1.54,0.31-1.6,0.41-1.48,1.99c0.04,0.55,0.29,0.75,0.82,0.74
					C187.52,165.11,188.2,165.13,188.89,165.13z M240.29,185.43c0,0.72-0.06,1.44,0.03,2.14c0.03,0.28,0.35,0.72,0.58,0.75
					c0.82,0.09,1.66,0.09,2.48,0.02c0.2-0.02,0.57-0.49,0.52-0.64c-0.54-1.62-1.11-3.24-1.79-4.81c-0.11-0.26-0.84-0.35-1.27-0.32
					c-0.2,0.02-0.49,0.5-0.52,0.8C240.23,184.05,240.29,184.75,240.29,185.43z M240.29,208.68
					C240.29,208.68,240.28,208.68,240.29,208.68c-0.01,0.66-0.06,1.32,0.02,1.97c0.04,0.33,0.32,0.88,0.51,0.89
					c0.45,0.01,1.2-0.1,1.33-0.39c0.68-1.53,1.22-3.13,1.75-4.72c0.05-0.16-0.3-0.64-0.49-0.66c-0.79-0.07-1.6-0.02-2.4,0.01
					c-0.53,0.02-0.74,0.32-0.71,0.85C240.31,207.31,240.29,207.99,240.29,208.68z M160.84,185.43c0-0.66,0.06-1.32-0.02-1.97
					c-0.04-0.33-0.34-0.89-0.52-0.89c-0.38,0-0.98,0.2-1.11,0.49c-0.67,1.45-1.23,2.94-1.79,4.44c-0.2,0.54,0.02,0.89,0.66,0.88
					c0.63-0.01,1.26,0,1.89,0c0.61,0,0.89-0.31,0.89-0.9C160.85,186.81,160.84,186.12,160.84,185.43z M160.84,208.67
					c0-0.69,0-1.37,0-2.06c0-0.56-0.26-0.85-0.83-0.85c-0.69,0-1.37,0.01-2.06-0.02c-0.59-0.02-0.73,0.33-0.57,0.77
					c0.59,1.57,1.21,3.14,1.9,4.67c0.11,0.24,0.69,0.41,1.01,0.35c0.22-0.04,0.49-0.5,0.52-0.8
					C160.9,210.05,160.84,209.36,160.84,208.67z M222.23,165.1c0.02-0.13,0.03-0.27,0.05-0.4c-0.25-0.12-0.49-0.25-0.75-0.34
					c-1.14-0.39-2.27-0.79-3.43-1.13c-0.28-0.08-0.88-0.02-0.91,0.1c-0.12,0.45-0.15,0.96-0.06,1.41c0.03,0.15,0.5,0.28,0.78,0.31
					c0.48,0.06,0.97,0.04,1.46,0.04C220.33,165.11,221.28,165.1,222.23,165.1z M222.29,229.37c-0.02-0.07-0.03-0.15-0.05-0.22
					c-0.18-0.05-0.36-0.13-0.54-0.13c-1.29-0.01-2.58-0.02-3.87-0.01c-0.74,0.01-0.91,0.36-0.81,1.33c0.07,0.7,0.52,0.69,0.99,0.55
					c0.98-0.3,1.96-0.64,2.93-0.98C221.4,229.76,221.84,229.55,222.29,229.37z M180.04,229.07c-0.01,0.1-0.03,0.21-0.04,0.31
					c1.16,0.61,2.42,0.98,3.72,1.23c0.1,0.02,0.29-0.16,0.34-0.29c0.31-0.81-0.04-1.3-0.92-1.31c-0.6-0.01-1.2-0.01-1.81,0
					C180.91,229.02,180.47,229.05,180.04,229.07z M180,164.64c0.02,0.13,0.05,0.26,0.07,0.39c1.23,0,2.46,0.03,3.69-0.05
					c0.14-0.01,0.3-0.7,0.3-1.08c0-0.15-0.46-0.47-0.63-0.42C182.27,163.83,181.14,164.25,180,164.64z M232.59,223.12
					c0.13,0.04,0.26,0.07,0.38,0.11c0.49-0.43,0.99-0.85,1.45-1.31c0.36-0.36,0.18-0.69-0.26-0.71c-0.48-0.02-1.22-0.02-1.4,0.26
					C232.5,221.89,232.63,222.56,232.59,223.12z M232.95,170.86c-0.09,0.04-0.18,0.07-0.27,0.11c-0.04,0.32-0.14,0.66-0.1,0.97
					c0.04,0.31,0.16,0.83,0.34,0.87c0.48,0.11,1,0.02,1.5-0.04c0.04,0,0.12-0.46,0.03-0.56
					C233.98,171.73,233.46,171.3,232.95,170.86z M167.04,172.53c0.43,0.19,0.71,0.4,0.8,0.34c0.28-0.18,0.51-0.47,0.71-0.75
					c0.03-0.05-0.31-0.44-0.34-0.42C167.87,171.91,167.55,172.16,167.04,172.53z M167.07,221.58c0.47,0.35,0.76,0.6,1.09,0.78
					c0.04,0.02,0.42-0.4,0.38-0.45c-0.18-0.27-0.41-0.54-0.68-0.69C167.74,221.16,167.46,221.39,167.07,221.58z"/>
			</g>
		</g>
		<g id="C2EIzz.tif_00000152944279877704579890000013757507106971121067_">
			<g>
				<path class="st4" d="M264.64,261.27c-8.04,0-16.09-0.01-24.13,0.01c-1.09,0-1.84-0.4-2.33-1.41c-0.13-0.27-0.61-0.52-0.93-0.53
					c-1.46-0.06-2.93-0.02-4.39-0.02c-7.9,0-15.8,0.06-23.7-0.02c-4.41-0.04-8.53,1.01-12.48,2.84
					c-6.92,3.22-12.91,7.76-18.34,13.07c-2.99,2.93-5.76,6.09-8.86,8.88c-4.04,3.64-8.8,6.15-13.9,8.05
					c-3.7,1.38-7.49,2.38-11.38,2.94c-5.61,0.81-11.26,1.16-16.91,0.47c-3.33-0.41-6.67-0.8-9.94-1.5
					c-3.9-0.82-7.64-2.24-11.21-4.04c-3.69-1.86-7.04-4.19-10.04-7.03c-4.73-4.49-8.14-9.82-10.17-16.01
					c-1.7-5.18-2.26-10.49-1.8-15.94c0.72-8.48,3.9-15.91,9.44-22.32c4.21-4.87,9.37-8.53,15.35-10.91c3.1-1.23,6.29-2.32,9.53-3.07
					c6.67-1.55,13.48-1.85,20.29-1.36c3.56,0.26,7.12,0.84,10.6,1.64c6.39,1.47,12.31,4.09,17.66,7.95
					c3.35,2.42,6.11,5.44,8.92,8.42c6.38,6.74,13.53,12.47,22.16,16.15c3.41,1.45,6.96,2.26,10.7,2.25
					c9.34-0.03,18.67-0.02,28.01,0.01c0.8,0,1.2-0.23,1.55-1c0.23-0.51,0.9-0.89,1.46-1.16c0.38-0.18,0.9-0.1,1.36-0.1
					c15.83-0.01,21.3-0.01,37.13-0.01c1.98,0,2.7,0.7,2.71,2.69c0.02,2.84,0.02,5.68,0.01,8.52c0,1.74-0.77,2.55-2.5,2.55
					C270.43,261.28,272.71,261.27,264.64,261.27z M182.61,244.62c0.06,0.49,0.08,0.68,0.11,0.87c0.36,2.29,0.86,4.57,1.05,6.87
					c0.32,3.77-0.15,7.5-1.07,11.17c-0.05,0.21,0.04,0.46,0.07,0.69c0.2-0.07,0.43-0.1,0.6-0.22c1.02-0.7,2-1.44,3.03-2.11
					c4.67-3.08,9.56-5.68,15.06-6.99c0.18-0.04,0.33-0.25,0.49-0.39c-0.16-0.13-0.31-0.31-0.5-0.37c-1.04-0.32-2.11-0.56-3.13-0.92
					c-5.34-1.83-10.13-4.68-14.67-7.99C183.39,245.05,183.1,244.91,182.61,244.62z M134.86,227.44
					C134.86,227.44,134.86,227.44,134.86,227.44c-0.01,0.66,0.02,1.32-0.02,1.98c-0.03,0.71,0.29,0.98,0.97,0.97
					c1.38-0.02,2.75,0.02,4.12-0.03c0.25-0.01,0.7-0.35,0.7-0.55c0.06-1.6,0.05-3.2,0-4.81c-0.01-0.18-0.36-0.49-0.56-0.49
					c-1.49-0.04-2.98-0.02-4.47-0.01c-0.53,0-0.78,0.26-0.76,0.8C134.88,226.01,134.86,226.73,134.86,227.44z M122.21,224.48
					c0,0.01,0,0.02,0,0.03c-0.72,0-1.43,0.01-2.15,0c-0.51-0.01-0.75,0.24-0.75,0.72c-0.01,1.46-0.04,2.92,0.03,4.37
					c0.01,0.27,0.44,0.74,0.69,0.75c1.46,0.07,2.92,0.04,4.38,0.02c0.54-0.01,0.82-0.3,0.81-0.88c-0.02-1.37-0.01-2.74,0-4.12
					c0-0.65-0.3-0.93-0.95-0.9C123.58,224.51,122.9,224.48,122.21,224.48z M132.93,227.45c0,0-0.01,0-0.01,0
					c0-0.74-0.01-1.49,0-2.23c0.01-0.51-0.24-0.73-0.73-0.72c-1.43,0.01-2.87,0.03-4.3,0.01c-0.58-0.01-0.75,0.29-0.75,0.8
					c0,1.4-0.01,2.81-0.02,4.21c0,0.55,0.22,0.87,0.81,0.87c1.4-0.01,2.81-0.01,4.21,0c0.54,0,0.79-0.25,0.79-0.78
					C132.92,228.89,132.93,228.17,132.93,227.45z M150.37,227.31C150.37,227.31,150.37,227.31,150.37,227.31
					c0,0.69,0.02,1.38-0.01,2.06c-0.03,0.69,0.23,1,0.94,0.98c1.32-0.02,2.64-0.02,3.96,0.04c0.74,0.03,0.96-0.3,0.95-0.97
					c-0.02-1.32-0.02-2.63,0.01-3.95c0.01-0.63-0.21-0.98-0.88-0.97c-1.46,0.01-2.93-0.03-4.39,0.03c-0.2,0.01-0.53,0.4-0.56,0.64
					C150.32,225.87,150.37,226.59,150.37,227.31z M117.42,227.42c0-0.66-0.02-1.32,0.01-1.98c0.03-0.65-0.22-0.96-0.89-0.95
					c-1.4,0.01-2.81-0.03-4.21,0.04c-0.25,0.01-0.67,0.41-0.68,0.64c-0.06,1.49-0.03,2.98-0.02,4.46c0,0.47,0.19,0.73,0.72,0.72
					c1.4-0.02,2.81-0.03,4.21,0.01c0.66,0.02,0.86-0.3,0.86-0.88C117.42,228.8,117.42,228.11,117.42,227.42z M125.21,266.11
					C125.21,266.11,125.21,266.11,125.21,266.11c0-0.69,0-1.37,0-2.06c0-0.49-0.18-0.86-0.73-0.86c-1.46-0.01-2.92,0-4.38,0.02
					c-0.51,0.01-0.79,0.25-0.79,0.8c0.01,1.4,0.01,2.81,0,4.21c0,0.62,0.29,0.86,0.9,0.85c1.37-0.02,2.75-0.01,4.13,0
					c0.62,0,0.89-0.28,0.87-0.89C125.2,267.49,125.21,266.8,125.21,266.11z M109.69,266.09
					C109.69,266.09,109.69,266.09,109.69,266.09c0.01-0.66-0.01-1.32,0.01-1.98c0.02-0.61-0.25-0.91-0.86-0.92
					c-1.41,0-2.81-0.01-4.22-0.01c-0.52,0-0.8,0.26-0.8,0.79c0,1.41,0,2.81-0.01,4.22c0,0.55,0.21,0.87,0.81,0.86
					c1.38-0.01,2.76-0.03,4.13,0.01c0.74,0.02,0.96-0.34,0.93-1C109.67,267.41,109.69,266.75,109.69,266.09z M122.29,284.53
					c0,0,0,0.01,0,0.01c0.63,0,1.26-0.03,1.89,0.01c0.74,0.05,1.06-0.25,1.04-0.99c-0.02-1.32-0.03-2.63,0-3.95
					c0.01-0.66-0.28-0.95-0.92-0.94c-1.38,0-2.75,0-4.13,0c-0.61,0-0.88,0.3-0.87,0.91c0.01,1.37,0.02,2.75,0,4.12
					c-0.01,0.59,0.26,0.84,0.83,0.83C120.86,284.52,121.58,284.53,122.29,284.53z M134.86,266.12
					C134.86,266.12,134.85,266.12,134.86,266.12c-0.01,0.66,0.02,1.32-0.01,1.98c-0.03,0.71,0.28,0.98,0.97,0.97
					c1.29-0.02,2.58-0.04,3.87,0c0.75,0.03,1.05-0.26,1.03-0.99c-0.02-1.35-0.02-2.69-0.01-4.04c0-0.58-0.28-0.84-0.84-0.84
					c-1.4,0-2.81-0.01-4.21-0.01c-0.58,0-0.82,0.3-0.8,0.87C134.87,264.75,134.86,265.44,134.86,266.12z M132.93,266.13
					c-0.01,0-0.01,0-0.02,0c0-0.74,0.06-1.49-0.03-2.23c-0.03-0.26-0.41-0.66-0.65-0.67c-1.46-0.06-2.92-0.07-4.38,0
					c-0.25,0.01-0.68,0.46-0.69,0.73c-0.07,1.43-0.04,2.86-0.04,4.29c0,0.56,0.24,0.83,0.83,0.82c1.37-0.02,2.75-0.02,4.12,0
					c0.63,0.01,0.88-0.27,0.86-0.88C132.91,267.5,132.93,266.81,132.93,266.13z M122.3,253.57
					C122.3,253.57,122.3,253.56,122.3,253.57c0.66-0.01,1.32-0.04,1.98,0c0.66,0.04,0.95-0.23,0.95-0.89
					c-0.01-1.37,0-2.75,0.01-4.12c0-0.52-0.23-0.83-0.76-0.84c-1.46-0.01-2.92,0-4.38,0.01c-0.52,0-0.78,0.26-0.77,0.81
					c0.01,1.4,0.02,2.8,0.01,4.21c-0.01,0.64,0.32,0.85,0.92,0.83C120.92,253.55,121.61,253.57,122.3,253.57z M171.7,242.99
					c-0.01,0-0.01,0-0.02,0c0-0.72,0-1.43,0-2.15c0-0.6-0.27-0.88-0.9-0.86c-1.4,0.03-2.81,0.03-4.21,0.01
					c-0.56-0.01-0.67,0.29-0.67,0.75c0,1.37,0.02,2.75-0.02,4.12c-0.03,0.78,0.36,1,1.04,0.99c1.32-0.02,2.64-0.06,3.95-0.02
					c0.68,0.02,0.85-0.29,0.83-0.88C171.69,244.3,171.7,243.65,171.7,242.99z M153.26,245.82c0,0,0-0.01,0-0.01
					c0.72,0,1.44,0.07,2.15-0.03c0.29-0.04,0.76-0.41,0.77-0.65c0.06-1.46,0.03-2.92,0-4.38c-0.01-0.54-0.28-0.8-0.88-0.79
					c-1.38,0.04-2.75,0.03-4.13,0.01c-0.6-0.01-0.81,0.25-0.81,0.83c0.02,1.4,0.01,2.81,0,4.21c-0.01,0.58,0.24,0.84,0.83,0.82
					C151.88,245.8,152.57,245.82,153.26,245.82z M134.85,281.67c0,0.66,0.02,1.32,0,1.98c-0.02,0.6,0.21,0.91,0.85,0.91
					c1.4-0.01,2.81,0.03,4.21-0.04c0.27-0.01,0.74-0.43,0.75-0.68c0.08-1.46,0.05-2.92,0.04-4.38c0-0.49-0.26-0.8-0.81-0.79
					c-1.38,0.01-2.75,0.02-4.13,0.01c-0.65,0-0.94,0.29-0.92,0.94C134.87,280.29,134.85,280.98,134.85,281.67z M114.52,278.67
					C114.52,278.67,114.52,278.67,114.52,278.67c-0.69,0.01-1.38,0.04-2.07,0c-0.61-0.03-0.82,0.26-0.82,0.82c0,1.43,0,2.87,0,4.3
					c0,0.5,0.23,0.75,0.73,0.75c1.44,0,2.87,0.03,4.31-0.04c0.26-0.01,0.71-0.45,0.72-0.71c0.07-1.46,0.03-2.92,0.02-4.39
					c0-0.53-0.28-0.77-0.82-0.75C115.9,278.69,115.21,278.67,114.52,278.67z M161.04,269.06c0,0,0-0.01,0-0.01
					c0.72,0,1.43-0.01,2.15,0c0.54,0.01,0.78-0.24,0.77-0.78c-0.01-1.4,0-2.81,0-4.21c0-0.59-0.23-0.9-0.87-0.89
					c-1.4,0.03-2.81,0.06-4.21,0.02c-0.56-0.01-0.75,0.27-0.75,0.7c-0.02,1.49-0.01,2.98,0,4.47c0.01,0.46,0.22,0.73,0.76,0.71
					C159.61,269.04,160.33,269.06,161.04,269.06z M99.03,269.06C99.03,269.06,99.03,269.06,99.03,269.06c0.69-0.01,1.37-0.03,2.06,0
					c0.54,0.02,0.81-0.19,0.81-0.74c0-1.46,0.04-2.92-0.03-4.37c-0.01-0.26-0.45-0.7-0.71-0.72c-1.43-0.07-2.86-0.04-4.29-0.04
					c-0.54,0-0.78,0.26-0.77,0.8c0.01,1.43,0.01,2.86,0.01,4.29c0,0.53,0.25,0.79,0.78,0.78C97.6,269.05,98.32,269.06,99.03,269.06z
					 M153.3,247.7c-0.69,0-1.38,0.01-2.07,0c-0.57-0.01-0.87,0.21-0.87,0.8c0,1.43,0.01,2.87,0,4.3c0,0.54,0.22,0.78,0.78,0.78
					c1.41-0.02,2.81-0.02,4.22,0c0.54,0.01,0.82-0.22,0.83-0.75c0.01-1.43,0.02-2.87,0.02-4.3c0-0.6-0.3-0.87-0.93-0.83
					C154.62,247.73,153.96,247.7,153.3,247.7z M111.61,250.68c0.01,0,0.01,0,0.02,0c0,0.66,0.03,1.32-0.01,1.97
					c-0.04,0.66,0.2,0.94,0.88,0.93c1.34-0.03,2.69-0.03,4.04,0c0.62,0.01,0.89-0.23,0.88-0.85c-0.01-1.37-0.01-2.74,0.01-4.12
					c0.01-0.61-0.24-0.9-0.87-0.89c-1.37,0.01-2.75,0.01-4.12-0.01c-0.65-0.01-0.85,0.33-0.84,0.91
					C111.63,249.3,111.61,249.99,111.61,250.68z M161.02,245.83C161.02,245.83,161.02,245.83,161.02,245.83
					c0.69,0.01,1.38-0.02,2.06,0.02c0.63,0.03,0.9-0.23,0.89-0.85c-0.01-1.4-0.02-2.81-0.01-4.21c0-0.58-0.24-0.82-0.83-0.81
					c-1.43,0.03-2.87,0-4.3,0.06c-0.24,0.01-0.68,0.34-0.68,0.53c-0.05,1.54-0.03,3.09,0.01,4.64c0.01,0.47,0.27,0.69,0.8,0.64
					C159.64,245.78,160.33,245.83,161.02,245.83z M153.24,269.07C153.24,269.07,153.24,269.07,153.24,269.07
					c0.63,0.01,1.27-0.06,1.89,0.03c0.85,0.12,1.07-0.3,1.08-1.02c0-1.34,0-2.69,0.01-4.03c0-0.62-0.32-0.87-0.91-0.87
					c-1.38,0.01-2.75,0.02-4.13,0.01c-0.53,0-0.8,0.21-0.8,0.76c0.01,1.46,0.01,2.92,0,4.38c0,0.55,0.27,0.76,0.8,0.75
					C151.86,269.05,152.55,269.07,153.24,269.07z M117.42,266.18c0-0.71-0.01-1.43,0-2.14c0.01-0.57-0.25-0.85-0.82-0.85
					c-1.4,0-2.81,0-4.21,0c-0.53,0-0.78,0.26-0.77,0.8c0.01,1.43,0.02,2.86,0.01,4.29c0,0.58,0.27,0.81,0.84,0.8
					c1.35-0.02,2.69-0.03,4.04,0c0.69,0.02,0.92-0.3,0.91-0.93C117.42,267.49,117.42,266.83,117.42,266.18z M114.51,239.98
					C114.51,239.98,114.51,239.98,114.51,239.98c-0.69-0.01-1.38,0.01-2.07-0.01c-0.54-0.02-0.81,0.2-0.81,0.75
					c0,1.46,0,2.92,0,4.39c0,0.5,0.25,0.73,0.74,0.73c1.44-0.01,2.87,0.02,4.3-0.05c0.25-0.01,0.68-0.39,0.69-0.62
					c0.07-1.49,0.05-2.98,0.04-4.47c0-0.48-0.24-0.73-0.75-0.72C115.94,239.99,115.23,239.98,114.51,239.98z M161.06,247.71
					c0,0,0,0.01,0,0.01c-0.69,0-1.38,0.02-2.06-0.01c-0.53-0.02-0.84,0.2-0.85,0.73c-0.02,1.49-0.03,2.98,0.03,4.47
					c0.01,0.23,0.44,0.62,0.69,0.63c1.43,0.06,2.87,0.02,4.3,0.02c0.52,0,0.8-0.19,0.79-0.76c-0.02-1.43-0.01-2.87,0.01-4.3
					c0.01-0.6-0.28-0.81-0.85-0.8C162.44,247.72,161.75,247.71,161.06,247.71z M132.92,281.63
					C132.93,281.63,132.93,281.63,132.92,281.63c0.01-0.66-0.02-1.32,0.01-1.98c0.03-0.69-0.24-1-0.95-0.99
					c-1.35,0.02-2.7,0.02-4.05,0c-0.56-0.01-0.8,0.27-0.81,0.77c-0.01,1.46,0,2.92,0.01,4.38c0,0.48,0.25,0.73,0.75,0.72
					c1.41-0.01,2.81-0.01,4.22,0c0.6,0.01,0.82-0.3,0.81-0.85C132.92,283.01,132.92,282.32,132.92,281.63z M96.09,242.89
					C96.1,242.89,96.1,242.89,96.09,242.89c0.01,0.72,0.02,1.43,0,2.15c-0.01,0.49,0.19,0.77,0.7,0.77c1.46,0,2.93,0.03,4.39-0.04
					c0.25-0.01,0.67-0.41,0.68-0.64c0.06-1.49,0.03-2.98,0.02-4.47c0-0.45-0.19-0.68-0.68-0.68c-1.44,0.02-2.87,0.02-4.31,0
					c-0.59,0-0.83,0.26-0.82,0.84C96.11,241.51,96.09,242.2,96.09,242.89z M171.68,266.12c0,0-0.01,0-0.01,0
					c0-0.72-0.01-1.43,0-2.15c0.01-0.55-0.23-0.79-0.77-0.78c-1.41,0.01-2.81,0-4.22,0c-0.52,0-0.79,0.24-0.79,0.79
					c0.01,1.43,0.01,2.87,0,4.3c0,0.52,0.2,0.79,0.77,0.78c1.38-0.02,2.76-0.02,4.13,0c0.65,0.01,0.88-0.3,0.88-0.88
					C171.68,267.5,171.68,266.81,171.68,266.12z M142.64,227.37c0.01,0,0.02,0,0.04,0c0,0.72,0.03,1.43-0.01,2.15
					c-0.03,0.58,0.2,0.86,0.78,0.86c1.41,0,2.81,0.03,4.22-0.04c0.27-0.01,0.72-0.45,0.74-0.71c0.07-1.49,0.05-2.98,0-4.47
					c-0.01-0.23-0.3-0.64-0.47-0.65c-1.55-0.05-3.1-0.05-4.64,0.02c-0.22,0.01-0.58,0.43-0.62,0.69
					C142.59,225.94,142.64,226.66,142.64,227.37z M119.31,242.91C119.32,242.91,119.32,242.91,119.31,242.91
					c0.01,0.72-0.06,1.44,0.04,2.14c0.04,0.28,0.44,0.72,0.69,0.73c1.46,0.07,2.92,0.04,4.38,0.03c0.5,0,0.8-0.24,0.79-0.79
					c-0.01-1.4-0.02-2.8,0-4.2c0.01-0.64-0.31-0.85-0.91-0.85c-1.4,0.02-2.81,0.03-4.21,0.03c-0.54,0-0.8,0.22-0.79,0.77
					C119.32,241.48,119.31,242.2,119.31,242.91z M153.35,278.67C153.35,278.67,153.35,278.67,153.35,278.67
					c-0.72,0-1.44,0.01-2.15-0.01c-0.6-0.02-0.83,0.26-0.83,0.82c0.01,1.43,0.01,2.87,0,4.3c0,0.5,0.22,0.75,0.72,0.75
					c1.46,0,2.93,0.03,4.39-0.04c0.25-0.01,0.68-0.42,0.69-0.66c0.06-1.46,0.05-2.92,0.03-4.38c-0.01-0.53-0.26-0.84-0.87-0.8
					C154.67,278.7,154.01,278.67,153.35,278.67z M134.86,250.68c0,0.66,0.02,1.32,0,1.97c-0.02,0.65,0.26,0.93,0.92,0.92
					c1.37-0.02,2.75-0.01,4.12,0.01c0.55,0.01,0.79-0.25,0.79-0.77c0.01-1.43,0.05-2.86-0.01-4.29c-0.01-0.27-0.42-0.75-0.67-0.76
					c-1.46-0.07-2.92-0.03-4.38-0.02c-0.52,0-0.79,0.25-0.77,0.8C134.87,249.25,134.86,249.96,134.86,250.68z M106.75,240.01
					c0-0.01,0-0.02,0-0.02c-0.66,0-1.32,0.03-1.98-0.01c-0.65-0.04-0.96,0.21-0.96,0.88c0.01,1.38,0,2.75-0.02,4.13
					c0,0.52,0.23,0.83,0.76,0.83c1.46,0.01,2.93,0.01,4.39,0c0.53,0,0.77-0.29,0.76-0.82c-0.01-1.4-0.02-2.81-0.02-4.21
					c0-0.53-0.24-0.79-0.79-0.78C108.19,240.02,107.47,240.01,106.75,240.01z M127.12,242.85c0.01,0,0.01,0,0.02,0
					c0,0.69,0.05,1.38-0.01,2.06c-0.06,0.66,0.24,0.89,0.83,0.89c1.38,0,2.76,0,4.13,0.01c0.56,0,0.85-0.21,0.84-0.81
					c-0.02-1.38-0.02-2.75,0-4.13c0.01-0.61-0.22-0.9-0.86-0.89c-1.44,0.02-2.87-0.03-4.31,0.03c-0.23,0.01-0.59,0.42-0.62,0.68
					C127.06,241.41,127.12,242.13,127.12,242.85z M140.69,242.87c0,0,0.01,0,0.01,0c0-0.72,0-1.43,0-2.15
					c0-0.49-0.25-0.74-0.74-0.74c-1.43,0-2.86,0.01-4.29,0.01c-0.57,0-0.83,0.27-0.82,0.84c0.01,1.4,0.01,2.8,0,4.2
					c0,0.5,0.22,0.77,0.7,0.77c1.49,0.01,2.98,0,4.46-0.01c0.49-0.01,0.7-0.28,0.68-0.78C140.67,244.3,140.69,243.58,140.69,242.87z
					 M106.78,253.57c0.66,0,1.32-0.02,1.98,0.01c0.65,0.03,0.96-0.22,0.95-0.89c-0.02-1.38-0.02-2.75,0-4.13
					c0.01-0.62-0.33-0.81-0.86-0.81c-1.38-0.01-2.75-0.02-4.13-0.02c-0.58,0-0.91,0.24-0.91,0.88c0.02,1.38,0.02,2.75,0,4.13
					c-0.01,0.64,0.31,0.86,0.91,0.85C105.4,253.56,106.09,253.57,106.78,253.57z M130.03,253.57
					C130.03,253.57,130.03,253.56,130.03,253.57c0.66-0.01,1.32-0.04,1.98,0c0.67,0.04,0.93-0.24,0.92-0.9
					c-0.02-1.34-0.03-2.69,0.01-4.03c0.02-0.67-0.25-0.93-0.91-0.92c-1.37,0.02-2.75,0.02-4.12,0.01c-0.52,0-0.79,0.2-0.79,0.76
					c0.02,1.43,0.01,2.86,0,4.29c0,0.58,0.27,0.82,0.85,0.8C128.65,253.55,129.34,253.57,130.03,253.57z M101.9,250.74
					C101.9,250.74,101.9,250.74,101.9,250.74c-0.01-0.75-0.02-1.49,0-2.24c0.01-0.49-0.18-0.78-0.69-0.78c-1.46-0.01-2.93,0-4.39,0
					c-0.51,0-0.72,0.26-0.71,0.75c0.01,1.43,0.01,2.87,0.01,4.3c0,0.52,0.22,0.79,0.78,0.79c1.41-0.01,2.81-0.01,4.22,0.01
					c0.61,0.01,0.81-0.29,0.8-0.85C101.89,252.06,101.9,251.4,101.9,250.74z M168.73,253.56c0.75,0,1.5,0.06,2.23-0.03
					c0.26-0.03,0.67-0.41,0.68-0.64c0.06-1.49,0.06-2.98,0-4.46c-0.01-0.24-0.41-0.67-0.65-0.68c-1.43-0.06-2.87-0.07-4.3,0
					c-0.28,0.01-0.75,0.42-0.76,0.66c-0.07,1.49-0.03,2.98-0.03,4.46c0,0.53,0.29,0.69,0.77,0.69
					C167.36,253.56,168.04,253.56,168.73,253.56z M142.64,266.1c0.02,0,0.04,0,0.06,0c0,0.75,0,1.49,0,2.24
					c0,0.53,0.21,0.75,0.79,0.73c1.32-0.04,2.64-0.04,3.96,0.01c0.77,0.03,1.01-0.3,1-1.02c-0.03-1.29-0.06-2.58,0-3.87
					c0.03-0.79-0.33-1.01-1.02-1.01c-1.29,0.01-2.58,0.02-3.88,0c-0.67-0.01-0.93,0.29-0.9,0.94
					C142.66,264.78,142.64,265.44,142.64,266.1z M137.89,270.99c0,0,0,0.01,0,0.01c-0.72,0-1.43,0.02-2.15-0.01
					c-0.61-0.02-0.89,0.22-0.88,0.85c0.02,1.37,0.01,2.75,0,4.12c-0.01,0.54,0.21,0.8,0.76,0.8c1.46-0.01,2.92,0.02,4.38-0.04
					c0.24-0.01,0.67-0.41,0.68-0.64c0.06-1.46,0.04-2.92,0.03-4.38c0-0.46-0.21-0.74-0.75-0.72
					C139.26,271.01,138.57,270.99,137.89,270.99z M148.42,281.67c0.01,0,0.01,0,0.02,0c0-0.72,0-1.43,0-2.15
					c0-0.55-0.22-0.86-0.81-0.86c-1.4,0.01-2.81-0.02-4.21,0.04c-0.25,0.01-0.67,0.39-0.68,0.62c-0.06,1.54-0.06,3.09-0.01,4.63
					c0.01,0.21,0.42,0.56,0.65,0.57c1.43,0.05,2.86,0.02,4.3,0.01c0.52,0,0.78-0.25,0.76-0.8
					C148.4,283.04,148.42,282.35,148.42,281.67z M122.3,255.5C122.3,255.5,122.3,255.5,122.3,255.5c-0.69-0.01-1.38,0.03-2.06-0.02
					c-0.69-0.05-0.93,0.25-0.92,0.89c0.01,1.37,0,2.75-0.01,4.12c-0.01,0.54,0.24,0.8,0.77,0.8c1.46,0,2.92,0.03,4.38-0.03
					c0.26-0.01,0.71-0.44,0.73-0.69c0.07-1.46,0.03-2.92,0.02-4.37c0-0.5-0.25-0.71-0.76-0.7
					C123.73,255.52,123.02,255.5,122.3,255.5z M122.18,276.75c0,0.01,0,0.01,0,0.02c0.72,0,1.43-0.01,2.15,0
					c0.61,0.01,0.89-0.26,0.88-0.89c-0.02-1.35-0.02-2.69,0-4.04c0.01-0.63-0.29-0.88-0.89-0.87c-1.41,0.02-2.81,0.03-4.22,0.03
					c-0.53,0-0.79,0.23-0.78,0.77c0.01,1.4,0.01,2.81,0.01,4.21c0,0.55,0.25,0.78,0.79,0.77
					C120.81,276.74,121.5,276.75,122.18,276.75z M142.65,250.66c0.01,0,0.02,0,0.03,0c0,0.72,0.02,1.43-0.01,2.15
					c-0.02,0.55,0.19,0.77,0.75,0.76c1.38-0.02,2.75-0.02,4.13,0.01c0.61,0.01,0.91-0.2,0.9-0.84c-0.02-1.4-0.02-2.81-0.01-4.21
					c0-0.57-0.21-0.84-0.81-0.83c-1.35,0.02-2.7,0.04-4.04,0c-0.74-0.02-0.96,0.32-0.94,0.98
					C142.66,249.35,142.65,250,142.65,250.66z M140.69,258.34C140.69,258.34,140.68,258.34,140.69,258.34
					c-0.01-0.72,0.05-1.44-0.04-2.14c-0.03-0.26-0.4-0.66-0.63-0.67c-1.46-0.05-2.92-0.01-4.38-0.01c-0.6,0-0.8,0.31-0.79,0.87
					c0.01,1.35,0.02,2.69,0,4.04c-0.01,0.62,0.26,0.87,0.88,0.87c1.38-0.01,2.75,0,4.13,0.02c0.59,0.01,0.84-0.26,0.84-0.83
					C140.69,259.77,140.69,259.06,140.69,258.34z M153.3,261.29C153.3,261.29,153.3,261.29,153.3,261.29c0.69,0,1.38-0.05,2.06,0.01
					c0.63,0.06,0.84-0.22,0.85-0.78c0-1.4,0-2.81,0-4.21c0-0.56-0.21-0.84-0.82-0.82c-1.41,0.03-2.81,0.03-4.22,0
					c-0.6-0.01-0.82,0.23-0.81,0.81c0.02,1.38,0.02,2.75-0.01,4.13c-0.01,0.64,0.26,0.88,0.88,0.86
					C151.92,261.27,152.61,261.29,153.3,261.29z M101.9,258.42c0,0-0.01,0-0.01,0c0-0.69-0.03-1.38,0.01-2.06
					c0.04-0.64-0.22-0.88-0.84-0.87c-1.4,0.02-2.81,0.03-4.21,0.01c-0.54-0.01-0.72,0.24-0.73,0.72c0,1.46-0.03,2.92,0.02,4.38
					c0.01,0.24,0.41,0.64,0.65,0.65c1.46,0.06,2.92,0.03,4.38,0.04c0.56,0,0.75-0.29,0.74-0.81
					C101.88,259.8,101.9,259.11,101.9,258.42z M168.89,261.31c0,0,0-0.01,0-0.01c0.66,0,1.32-0.04,1.98,0.01
					c0.56,0.04,0.81-0.17,0.81-0.71c0.01-1.46,0.03-2.92-0.02-4.38c-0.01-0.24-0.35-0.67-0.55-0.67c-1.52-0.06-3.04-0.03-4.56-0.03
					c-0.46,0-0.66,0.23-0.65,0.7c0.02,1.43,0.02,2.87-0.01,4.3c-0.01,0.63,0.3,0.8,0.84,0.8
					C167.45,261.3,168.17,261.31,168.89,261.31z M142.7,242.92c-0.02,0-0.04,0-0.05,0c0,0.66,0.04,1.32-0.01,1.97
					c-0.05,0.68,0.25,0.94,0.89,0.94c1.38-0.01,2.75,0,4.13,0c0.47,0,0.76-0.16,0.76-0.7c-0.01-1.46,0-2.92,0.01-4.39
					c0-0.55-0.24-0.75-0.8-0.74c-1.41,0.03-2.81,0.03-4.22-0.01c-0.55-0.02-0.73,0.2-0.72,0.69
					C142.71,241.42,142.7,242.17,142.7,242.92z M106.66,276.76C106.66,276.76,106.66,276.76,106.66,276.76
					c0.75-0.01,1.49-0.02,2.24,0c0.54,0.01,0.79-0.22,0.79-0.76c-0.01-1.4-0.02-2.81,0-4.21c0.01-0.55-0.23-0.78-0.77-0.78
					c-1.43,0-2.87-0.01-4.3-0.02c-0.53,0-0.8,0.22-0.8,0.77c0.01,1.4,0.01,2.81,0,4.21c0,0.59,0.3,0.81,0.86,0.8
					C105.34,276.75,106,276.76,106.66,276.76z M106.75,255.5C106.75,255.51,106.75,255.51,106.75,255.5c-0.69,0.01-1.38,0.04-2.06,0
					c-0.58-0.03-0.86,0.18-0.86,0.77c0,1.4,0,2.81-0.02,4.21c-0.01,0.55,0.26,0.8,0.78,0.8c1.46,0.01,2.92,0,4.39,0
					c0.49,0,0.74-0.24,0.73-0.74c-0.01-1.4-0.02-2.81-0.01-4.21c0-0.61-0.24-0.89-0.88-0.84
					C108.13,255.54,107.44,255.5,106.75,255.5z M161.02,261.3C161.02,261.3,161.02,261.29,161.02,261.3c0.72-0.01,1.43-0.02,2.15,0
					c0.59,0.02,0.81-0.24,0.8-0.83c-0.02-1.34-0.03-2.69,0.01-4.03c0.02-0.73-0.29-0.95-0.97-0.93c-1.37,0.03-2.75,0.02-4.13-0.01
					c-0.54-0.01-0.74,0.25-0.75,0.71c-0.01,1.46-0.01,2.92,0.01,4.38c0.01,0.49,0.22,0.78,0.81,0.73
					C159.64,261.25,160.33,261.3,161.02,261.3z M163.96,273.87c0-0.69-0.02-1.37,0.01-2.06c0.02-0.59-0.24-0.82-0.82-0.81
					c-1.43,0.02-2.86,0.03-4.29,0c-0.56-0.01-0.71,0.27-0.71,0.73c-0.01,1.43-0.01,2.86-0.01,4.29c0,0.54,0.28,0.75,0.81,0.74
					c1.4-0.02,2.8-0.01,4.21,0c0.59,0.01,0.82-0.25,0.8-0.83C163.94,275.24,163.96,274.56,163.96,273.87z M130.02,271
					C130.02,271,130.02,271.01,130.02,271c-0.75,0.01-1.5-0.04-2.23,0.03c-0.24,0.02-0.62,0.36-0.63,0.57
					c-0.05,1.49-0.06,2.98,0,4.47c0.01,0.23,0.43,0.63,0.67,0.64c1.46,0.06,2.93,0.03,4.39,0.04c0.46,0,0.7-0.19,0.69-0.66
					c-0.01-1.46-0.01-2.93,0-4.39c0-0.51-0.23-0.72-0.74-0.71C131.46,271.02,130.74,271,130.02,271z M122.25,238.07
					C122.25,238.07,122.25,238.06,122.25,238.07c0.72-0.01,1.44-0.01,2.15,0c0.53,0.01,0.8-0.23,0.8-0.77c0-1.4,0-2.81,0-4.21
					c0-0.53-0.25-0.79-0.78-0.79c-1.44,0-2.87,0-4.31,0c-0.52,0-0.8,0.22-0.8,0.77c0.01,1.4,0.01,2.81,0,4.21
					c0,0.6,0.3,0.81,0.86,0.8C120.87,238.05,121.56,238.07,122.25,238.07z M153.37,271.01c-0.75,0-1.49,0.01-2.24,0
					c-0.48-0.01-0.76,0.17-0.76,0.7c0.01,1.46-0.03,2.93,0.03,4.39c0.01,0.23,0.43,0.64,0.67,0.65c1.46,0.06,2.93,0.02,4.39,0.02
					c0.51,0,0.73-0.24,0.73-0.73c0-1.4,0-2.81,0-4.21c0-0.57-0.26-0.83-0.85-0.8C154.69,271.03,154.03,271.01,153.37,271.01z
					 M106.81,238.06C106.81,238.06,106.81,238.06,106.81,238.06c0.63,0,1.26-0.04,1.89,0.01c0.7,0.05,1-0.22,0.99-0.93
					c-0.02-1.32-0.03-2.63,0-3.95c0.02-0.68-0.29-0.91-0.93-0.91c-1.38,0.02-2.75,0.01-4.13,0c-0.59-0.01-0.83,0.28-0.82,0.84
					c0.01,1.37,0.01,2.75,0.01,4.12c0,0.57,0.26,0.84,0.84,0.82C105.38,238.05,106.09,238.06,106.81,238.06z M130.05,255.52
					C130.05,255.51,130.05,255.51,130.05,255.52c-0.69-0.01-1.38,0.02-2.06-0.01c-0.63-0.03-0.88,0.23-0.87,0.86
					c0.02,1.37,0.03,2.75,0.01,4.12c-0.01,0.6,0.24,0.83,0.81,0.82c1.43-0.01,2.86,0.02,4.29-0.04c0.24-0.01,0.65-0.41,0.66-0.64
					c0.06-1.46,0.03-2.92,0.04-4.37c0-0.49-0.22-0.74-0.73-0.73C131.48,255.52,130.77,255.52,130.05,255.52z M137.84,238.06
					c0.69,0,1.38-0.03,2.06,0.01c0.57,0.03,0.79-0.24,0.8-0.75c0.01-1.43,0.04-2.86-0.03-4.29c-0.01-0.26-0.46-0.69-0.72-0.7
					c-1.46-0.07-2.92-0.06-4.38,0c-0.25,0.01-0.67,0.4-0.68,0.63c-0.06,1.46-0.04,2.91-0.04,4.37c0,0.49,0.25,0.73,0.74,0.73
					C136.35,238.05,137.09,238.06,137.84,238.06z M114.42,261.28C114.42,261.28,114.42,261.28,114.42,261.28
					c0.75,0.01,1.49,0,2.24,0.01c0.55,0.01,0.78-0.25,0.78-0.78c-0.01-1.43,0.02-2.86-0.04-4.29c-0.01-0.25-0.39-0.67-0.61-0.68
					c-1.49-0.06-2.98-0.06-4.47,0.01c-0.24,0.01-0.66,0.41-0.67,0.64c-0.06,1.46-0.03,2.92-0.03,4.38c0,0.5,0.23,0.73,0.74,0.72
					C113.05,261.26,113.73,261.28,114.42,261.28z M132.91,235.14C132.92,235.14,132.92,235.14,132.91,235.14
					c0.01-0.69,0-1.38,0.01-2.06c0.01-0.54-0.21-0.79-0.76-0.79c-1.44,0.01-2.87,0.01-4.31,0c-0.51,0-0.73,0.25-0.73,0.73
					c0,1.43,0,2.87,0.01,4.3c0,0.47,0.18,0.76,0.71,0.75c1.46-0.02,2.93-0.02,4.39-0.01c0.47,0,0.68-0.23,0.68-0.68
					C132.91,236.63,132.91,235.88,132.91,235.14z M153.26,238.06C153.26,238.06,153.26,238.05,153.26,238.06
					c0.69,0,1.38-0.03,2.07,0c0.58,0.03,0.86-0.21,0.86-0.79c0-1.41,0-2.81,0-4.22c0-0.47-0.19-0.76-0.71-0.76
					c-1.46,0-2.93,0-4.39,0c-0.49,0-0.73,0.22-0.72,0.74c0.01,1.43,0.01,2.87,0,4.3c0,0.5,0.24,0.73,0.74,0.72
					C151.83,238.05,152.54,238.06,153.26,238.06z M161.03,238.06c0.75,0,1.49-0.01,2.24,0c0.46,0.01,0.69-0.19,0.69-0.67
					c-0.01-1.46,0.03-2.93-0.03-4.39c-0.01-0.24-0.41-0.67-0.64-0.68c-1.49-0.06-2.98-0.06-4.48,0c-0.23,0.01-0.62,0.38-0.63,0.6
					c-0.06,1.46-0.04,2.92-0.02,4.38c0,0.51,0.25,0.78,0.81,0.75C159.65,238.03,160.34,238.06,161.03,238.06z M117.42,273.94
					C117.42,273.94,117.42,273.94,117.42,273.94c0-0.69-0.01-1.38,0.01-2.07c0.01-0.6-0.21-0.89-0.86-0.87
					c-1.35,0.03-2.7,0.03-4.05,0c-0.62-0.01-0.89,0.21-0.88,0.84c0.02,1.38,0.02,2.75,0,4.13c-0.01,0.53,0.19,0.79,0.75,0.78
					c1.41-0.02,2.81-0.02,4.22,0c0.59,0.01,0.83-0.26,0.81-0.83C117.4,275.26,117.42,274.6,117.42,273.94z M114.53,232.3
					C114.53,232.3,114.53,232.3,114.53,232.3c-0.72,0-1.43,0.01-2.15,0c-0.5-0.01-0.75,0.2-0.74,0.71c0.01,1.46,0.01,2.92,0.01,4.38
					c0,0.45,0.2,0.68,0.68,0.67c1.46-0.01,2.93,0.03,4.38-0.03c0.24-0.01,0.66-0.4,0.67-0.63c0.06-1.46,0.03-2.92,0.04-4.38
					c0-0.5-0.24-0.73-0.74-0.72C115.96,232.3,115.24,232.3,114.53,232.3z M145.47,261.31C145.47,261.31,145.47,261.31,145.47,261.31
					c0.69,0,1.38-0.03,2.06,0c0.66,0.03,0.94-0.22,0.92-0.9c-0.03-1.34-0.03-2.69-0.01-4.03c0.01-0.66-0.23-0.93-0.91-0.91
					c-1.37,0.04-2.75,0.05-4.12,0.03c-0.52-0.01-0.73,0.17-0.73,0.68c0,1.46-0.03,2.91-0.04,4.37c-0.01,0.57,0.24,0.82,0.85,0.77
					C144.15,261.27,144.81,261.31,145.47,261.31z M145.6,276.76c0.66,0,1.32-0.01,1.97,0c0.6,0.02,0.89-0.2,0.87-0.85
					c-0.03-1.37-0.03-2.74,0-4.12c0.01-0.6-0.26-0.82-0.82-0.82c-1.4,0.01-2.8,0.02-4.21,0c-0.51-0.01-0.73,0.21-0.72,0.71
					c0.01,1.43,0.02,2.86,0,4.29c-0.01,0.61,0.29,0.8,0.85,0.78C144.23,276.74,144.91,276.76,145.6,276.76z M145.56,232.3
					c-0.72,0-1.44,0.03-2.15-0.01c-0.54-0.03-0.71,0.22-0.71,0.71c0,1.43-0.02,2.86-0.03,4.29c0,0.51,0.19,0.78,0.77,0.77
					c1.4-0.02,2.81-0.01,4.22,0.01c0.53,0.01,0.8-0.2,0.79-0.75c-0.01-1.43-0.01-2.86,0-4.3c0-0.5-0.23-0.73-0.73-0.73
					C146.99,232.3,146.27,232.3,145.56,232.3z M101.89,273.89C101.89,273.89,101.9,273.89,101.89,273.89
					c0.01-0.63-0.03-1.26,0.02-1.89c0.05-0.72-0.19-1.06-0.96-1.04c-1.37,0.04-2.75,0.04-4.12,0.03c-0.52,0-0.72,0.25-0.72,0.73
					c0,1-0.03,2,0.01,3.01c0.04,0.9,1.22,2.01,2.11,2.02c0.95,0.01,1.89-0.02,2.84,0c0.52,0.01,0.83-0.17,0.83-0.72
					C101.9,275.32,101.89,274.6,101.89,273.89z M99,238.06C99,238.06,99,238.06,99,238.06c0.72,0.01,1.43-0.01,2.15,0.01
					c0.52,0.02,0.74-0.24,0.74-0.72c0.01-1.43,0.01-2.86,0.02-4.3c0-0.54-0.23-0.78-0.78-0.77c-0.97,0.02-1.95-0.01-2.92,0.02
					c-0.88,0.02-2.07,1.16-2.1,2.04c-0.03,0.97,0.01,1.95,0,2.92c0,0.56,0.22,0.84,0.82,0.81C97.62,238.03,98.31,238.06,99,238.06z
					 M109.7,227.46c0-0.72,0.06-1.44-0.03-2.14c-0.04-0.3-0.38-0.77-0.62-0.79c-0.99-0.09-1.94-0.04-2.87,0.56
					c-2.89,1.84-2.27,0.98-2.36,4.29c-0.02,0.73,0.3,1.04,1.03,1.02c1.35-0.03,2.69-0.01,4.04-0.01c0.52,0,0.81-0.24,0.82-0.78
					C109.7,228.9,109.69,228.18,109.7,227.46z M109.7,281.71C109.7,281.71,109.69,281.71,109.7,281.71
					c-0.01-0.72-0.02-1.43-0.01-2.15c0.01-0.62-0.28-0.89-0.89-0.89c-1.38,0.01-2.75,0-4.13,0c-0.62,0-0.87,0.32-0.87,0.92
					c0.01,0.74-0.04,1.49,0.03,2.23c0.03,0.33,0.22,0.75,0.47,0.93c0.87,0.6,1.75,1.23,2.72,1.61c0.65,0.25,1.46,0.15,2.19,0.1
					c0.17-0.01,0.43-0.44,0.46-0.69C109.74,283.09,109.7,282.4,109.7,281.71z M165.9,273.79C165.9,273.79,165.9,273.79,165.9,273.79
					c-0.01,0.4-0.01,0.8-0.01,1.2c-0.01,2.05-0.11,1.68,1.82,1.79c1.29,0.07,2.37-0.11,3.06-1.34c0.26-0.46,0.76-0.86,0.84-1.33
					c0.14-0.8,0.07-1.65-0.01-2.47c-0.02-0.23-0.39-0.59-0.61-0.6c-1.46-0.05-2.92-0.02-4.38-0.03c-0.5,0-0.73,0.21-0.72,0.73
					C165.92,272.41,165.9,273.1,165.9,273.79z M165.89,235.17c0,0.69,0.02,1.38-0.01,2.06c-0.02,0.58,0.21,0.84,0.81,0.83
					c0.95-0.02,1.89,0.01,2.84-0.01c2.27-0.04,2.15,0.44,2.1-2.08c-0.01-0.55,0-1.2-0.27-1.64c-0.88-1.47-2.08-2.49-3.98-2.06
					c-0.14,0.03-0.29,0.02-0.43,0c-0.86-0.13-1.12,0.29-1.06,1.08C165.93,233.97,165.89,234.57,165.89,235.17z M158.14,227.46
					c-0.01,0-0.01,0-0.02,0c0,0.71-0.01,1.43,0,2.14c0.01,0.54,0.24,0.81,0.86,0.79c1-0.04,2,0,3,0c2.02,0,2.04,0,1.98-2.02
					c-0.01-0.46-0.06-1.11-0.35-1.32c-1.25-0.9-2.52-1.83-3.93-2.42c-1.15-0.48-1.69-0.14-1.55,1.12
					C158.19,226.31,158.14,226.89,158.14,227.46z M161.07,278.68C161.07,278.67,161.07,278.67,161.07,278.68
					c-0.63-0.01-1.26,0.03-1.89-0.01c-0.78-0.05-1.09,0.27-1.07,1.05c0.03,1.17,0.08,2.35-0.02,3.52c-0.12,1.4,0.77,1.62,1.89,1.08
					c0.77-0.37,1.43-0.98,2.21-1.31c1.55-0.65,2.05-1.76,1.77-3.34c-0.01-0.08,0-0.17,0-0.26c0-0.49-0.23-0.74-0.74-0.73
					C162.51,278.68,161.79,278.68,161.07,278.68z M94.17,250.68c0,0,0.01,0,0.01,0c0-0.72-0.01-1.43,0-2.15
					c0.01-0.49-0.19-0.78-0.69-0.78c-0.98-0.01-1.95-0.05-2.92,0.03c-0.27,0.02-0.69,0.37-0.73,0.63c-0.24,1.47-0.4,2.95-0.57,4.43
					c-0.06,0.51,0.21,0.75,0.71,0.74c1.15,0,2.3-0.01,3.45-0.01c0.56,0,0.76-0.3,0.75-0.82C94.16,252.05,94.17,251.37,94.17,250.68z
					 M176.04,253.58c0.54,0,1.09-0.02,1.63,0.01c0.53,0.02,0.86-0.17,0.8-0.73c-0.15-1.45-0.33-2.89-0.51-4.34
					c-0.07-0.58-0.39-0.84-1-0.81c-0.8,0.03-1.61,0.03-2.41,0.01c-0.65-0.01-0.95,0.28-0.94,0.93c0.01,0.83,0,1.66,0.01,2.49
					C173.66,253.99,173.32,253.52,176.04,253.58z M94.17,258.45C94.17,258.45,94.17,258.45,94.17,258.45c0-0.72,0-1.43,0-2.15
					c0-0.47-0.17-0.78-0.69-0.78c-1.2,0-2.41-0.04-3.61,0.01c-0.21,0.01-0.6,0.42-0.58,0.61c0.12,1.48,0.33,2.95,0.5,4.43
					c0.06,0.54,0.36,0.73,0.87,0.72c0.92-0.01,1.84-0.01,2.75,0c0.53,0,0.79-0.23,0.77-0.78C94.16,259.82,94.17,259.13,94.17,258.45
					z M173.64,258.39c0,0-0.01,0-0.01,0c0,0.69-0.01,1.37,0,2.06c0.01,0.55,0.27,0.84,0.85,0.84c0.86-0.01,1.72-0.02,2.58,0.01
					c0.52,0.01,0.83-0.2,0.9-0.71c0.19-1.47,0.36-2.95,0.53-4.42c0.05-0.47-0.19-0.67-0.66-0.67c-1.15,0.02-2.29,0.02-3.44,0.01
					c-0.51,0-0.74,0.24-0.74,0.73C173.63,256.96,173.64,257.67,173.64,258.39z M129.98,222.55
					C129.98,222.56,129.98,222.56,129.98,222.55c0.69,0.01,1.37-0.01,2.06,0.02c0.6,0.02,0.91-0.18,0.88-0.83
					c-0.03-0.8-0.02-1.6,0-2.4c0.02-0.58-0.22-0.84-0.81-0.82c-1.4,0.06-2.8,0.1-4.2,0.14c-0.53,0.01-0.8,0.27-0.8,0.79
					c-0.01,0.8,0.01,1.6,0,2.4c-0.01,0.5,0.2,0.73,0.72,0.72C128.55,222.54,129.27,222.55,129.98,222.55z M130.02,286.5
					c0-0.01,0-0.01,0-0.02c-0.66,0-1.32,0.02-1.98-0.01c-0.61-0.03-0.98,0.1-0.92,0.85c0.06,0.74-0.01,1.49-0.01,2.23
					c0,0.5,0.2,0.82,0.75,0.84c1.46,0.04,2.92,0.09,4.38,0.13c0.46,0.01,0.68-0.2,0.68-0.67c-0.01-0.89-0.02-1.78-0.01-2.66
					c0.01-0.53-0.27-0.7-0.75-0.69C131.45,286.51,130.73,286.5,130.02,286.5z M137.75,222.56c0,0,0,0.01,0,0.01
					c0.66,0,1.32-0.03,1.98,0.01c0.69,0.04,1.02-0.2,0.98-0.93c-0.04-0.66-0.03-1.32,0-1.98c0.02-0.61-0.25-0.9-0.85-0.93
					c-1.4-0.07-2.81-0.13-4.21-0.21c-0.59-0.03-0.82,0.25-0.8,0.83c0.03,0.8,0.03,1.6,0,2.41c-0.02,0.61,0.28,0.81,0.84,0.8
					C136.38,222.55,137.07,222.56,137.75,222.56z M137.77,286.5C137.77,286.5,137.77,286.5,137.77,286.5c-0.74,0-1.5-0.05-2.23,0.03
					c-0.25,0.03-0.62,0.4-0.65,0.65c-0.08,0.85-0.02,1.71-0.04,2.57c-0.02,0.55,0.22,0.79,0.76,0.77c1.26-0.05,2.52-0.05,3.77-0.17
					c1.32-0.13,1.32-0.18,1.32-1.54c0-0.51-0.03-1.03-0.02-1.54c0.02-0.55-0.24-0.78-0.78-0.77
					C139.2,286.51,138.48,286.5,137.77,286.5z M122.18,222.57c0.69,0,1.38-0.03,2.07,0.01c0.76,0.05,1.04-0.29,0.99-1.02
					c-0.04-0.54-0.01-1.09-0.02-1.63c-0.02-0.86-0.2-1.02-1.04-0.88c-1.19,0.2-2.37,0.41-3.56,0.61c-1.2,0.2-1.3,0.31-1.3,1.55
					c0,0.2-0.01,0.4-0.01,0.6c-0.01,0.5,0.23,0.75,0.72,0.75C120.75,222.57,121.47,222.57,122.18,222.57z M122.32,286.51
					c0-0.02,0-0.04,0-0.06c-0.69,0-1.37,0.02-2.06-0.01c-0.64-0.02-0.99,0.2-0.94,0.89c0.02,0.28,0.03,0.57,0,0.86
					c-0.06,0.62,0.17,0.95,0.81,1.06c1.44,0.24,2.86,0.53,4.3,0.78c0.57,0.1,0.77-0.27,0.78-0.76c0.02-0.66-0.01-1.32,0.01-1.97
					c0.02-0.55-0.23-0.79-0.77-0.78C123.75,286.51,123.03,286.51,122.32,286.51z M145.48,222.55
					C145.48,222.56,145.48,222.56,145.48,222.55c0.49,0.01,0.97,0.01,1.46,0.01c1.46-0.01,1.84-0.48,1.48-1.91
					c-0.06-0.23-0.31-0.54-0.52-0.59c-1.51-0.32-3.02-0.6-4.54-0.82c-0.2-0.03-0.63,0.32-0.66,0.53c-0.09,0.7-0.04,1.42-0.04,2.14
					c0,0.46,0.21,0.67,0.68,0.66C144.05,222.54,144.76,222.55,145.48,222.55z M145.57,286.45c0,0.02,0,0.04,0,0.05
					c-0.52,0-1.03,0-1.55,0c-1.31,0-1.31,0-1.36,1.26c-0.02,0.4,0.02,0.8-0.02,1.2c-0.08,0.83,0.34,1.01,1.04,0.87
					c1.1-0.22,2.19-0.44,3.29-0.66c1.54-0.31,1.6-0.41,1.48-1.99c-0.04-0.55-0.29-0.75-0.82-0.74
					C146.95,286.46,146.26,286.45,145.57,286.45z M94.18,266.14c0-0.72,0.06-1.44-0.03-2.14c-0.03-0.28-0.35-0.72-0.58-0.75
					c-0.82-0.09-1.66-0.09-2.48-0.02c-0.2,0.02-0.57,0.49-0.52,0.64c0.54,1.62,1.11,3.24,1.79,4.81c0.11,0.26,0.84,0.35,1.27,0.32
					c0.2-0.02,0.49-0.5,0.52-0.8C94.23,267.52,94.18,266.83,94.18,266.14z M94.18,242.9C94.18,242.9,94.18,242.9,94.18,242.9
					c0.01-0.66,0.06-1.32-0.02-1.97c-0.04-0.33-0.32-0.88-0.51-0.89c-0.45-0.01-1.2,0.1-1.33,0.39c-0.68,1.53-1.22,3.13-1.75,4.72
					c-0.05,0.16,0.3,0.64,0.49,0.66c0.79,0.07,1.6,0.02,2.4-0.01c0.53-0.02,0.74-0.32,0.71-0.85
					C94.16,244.27,94.18,243.58,94.18,242.9z M173.62,266.14c0,0.66-0.06,1.32,0.02,1.97c0.04,0.33,0.34,0.89,0.52,0.89
					c0.38,0,0.98-0.2,1.11-0.49c0.67-1.45,1.23-2.94,1.79-4.44c0.2-0.54-0.02-0.89-0.66-0.88c-0.63,0.01-1.26,0-1.89,0
					c-0.61,0-0.89,0.31-0.89,0.9C173.62,264.77,173.62,265.45,173.62,266.14z M173.62,242.9c0,0.69,0,1.37,0,2.06
					c0,0.56,0.26,0.85,0.83,0.85c0.69,0,1.37-0.01,2.06,0.02c0.59,0.02,0.73-0.33,0.57-0.77c-0.59-1.57-1.21-3.14-1.9-4.67
					c-0.11-0.24-0.69-0.41-1.01-0.35c-0.22,0.04-0.49,0.5-0.52,0.8C173.57,241.52,173.62,242.21,173.62,242.9z M112.23,286.47
					c-0.02,0.13-0.03,0.27-0.05,0.4c0.25,0.12,0.49,0.25,0.75,0.34c1.14,0.39,2.27,0.79,3.43,1.13c0.28,0.08,0.88,0.02,0.91-0.1
					c0.12-0.45,0.15-0.96,0.06-1.41c-0.03-0.15-0.5-0.28-0.78-0.31c-0.48-0.06-0.97-0.04-1.46-0.04
					C114.13,286.47,113.18,286.47,112.23,286.47z M112.17,222.2c0.02,0.07,0.03,0.15,0.05,0.22c0.18,0.05,0.36,0.13,0.54,0.13
					c1.29,0.01,2.58,0.02,3.87,0.01c0.74-0.01,0.91-0.36,0.81-1.33c-0.07-0.7-0.52-0.69-0.99-0.55c-0.98,0.3-1.96,0.64-2.93,0.98
					C113.07,221.82,112.62,222.02,112.17,222.2z M154.42,222.5c0.01-0.1,0.03-0.21,0.04-0.31c-1.16-0.61-2.42-0.98-3.72-1.23
					c-0.1-0.02-0.29,0.16-0.34,0.29c-0.31,0.81,0.04,1.3,0.92,1.31c0.6,0.01,1.2,0.01,1.81,0
					C153.56,222.56,153.99,222.52,154.42,222.5z M154.47,286.93c-0.02-0.13-0.05-0.26-0.07-0.39c-1.23,0-2.46-0.04-3.69,0.05
					c-0.14,0.01-0.3,0.7-0.3,1.08c0,0.15,0.46,0.47,0.63,0.42C152.2,287.74,153.33,287.32,154.47,286.93z M101.88,228.45
					c-0.13-0.04-0.26-0.07-0.38-0.11c-0.49,0.43-0.99,0.85-1.45,1.31c-0.36,0.36-0.18,0.69,0.26,0.71c0.48,0.02,1.22,0.02,1.4-0.26
					C101.97,229.68,101.84,229.01,101.88,228.45z M101.51,280.72c0.09-0.04,0.18-0.07,0.27-0.11c0.04-0.32,0.14-0.66,0.1-0.97
					c-0.04-0.31-0.16-0.83-0.34-0.87c-0.48-0.11-1-0.02-1.5,0.04c-0.04,0-0.12,0.46-0.03,0.56
					C100.49,279.84,101.01,280.27,101.51,280.72z M167.43,279.04c-0.43-0.19-0.71-0.4-0.8-0.34c-0.28,0.18-0.51,0.47-0.71,0.75
					c-0.03,0.05,0.31,0.44,0.34,0.42C166.59,279.66,166.91,279.42,167.43,279.04z M167.4,229.99c-0.47-0.35-0.76-0.6-1.09-0.78
					c-0.04-0.02-0.42,0.4-0.38,0.45c0.18,0.27,0.41,0.54,0.68,0.69C166.72,230.42,167,230.18,167.4,229.99z"/>
			</g>
		</g>
	</g>
	<g>
		
			<ellipse transform="matrix(0.1627 -0.9867 0.9867 0.1627 -81.6318 349.7068)" class="st5" cx="165.24" cy="222.95" rx="19.14" ry="19.14"/>
		<path class="st1" d="M164.63,228.88c5.93,0,11,3.63,12.91,8.7c0.61-0.52,1.19-1.07,1.74-1.66c-2.47-5.46-8.1-9.29-14.65-9.29
			c-6.19,0-11.56,3.42-14.22,8.4c0.51,0.62,1.05,1.21,1.63,1.76C154.17,232.15,159.01,228.88,164.63,228.88z M179.28,209.97
			c-0.54-0.59-1.12-1.14-1.74-1.66c-1.92,5.07-6.98,8.7-12.91,8.7c-5.62,0-10.46-3.26-12.59-7.92c-0.58,0.55-1.12,1.14-1.63,1.76
			c2.65,4.99,8.03,8.4,14.22,8.4C171.18,219.26,176.82,215.43,179.28,209.97z"/>
	</g>
	<path class="st2" d="M170.61,421.19l-1.11-0.44c-38.53-15.32-71.4-34.23-97.71-56.21c-21.12-17.64-38.08-37.29-50.42-58.4
		C0.24,270.02,0,242.44,0,241.28V0h341.21v241.28c0,1.16-0.24,28.74-21.36,64.87c-12.34,21.11-29.3,40.76-50.42,58.4
		c-26.31,21.98-59.19,40.89-97.71,56.21L170.61,421.19z M6,6v235.28c0.02,9.34,4.4,34.37,20.76,62.21
		c33.99,57.84,96.75,92.37,143.85,111.25c47.1-18.87,109.85-53.4,143.85-111.25c16.36-27.84,20.73-52.87,20.76-62.21V6H6z"/>
</g>
</svg>
